<?xml version="1.0" encoding="UTF-8"?>
<svg width="24px" height="24px" viewBox="0 0 24 24" version="1.1" xmlns="http://www.w3.org/2000/svg" xmlns:xlink="http://www.w3.org/1999/xlink">
    <title>ranking</title>
    <g id="页面-1" stroke="none" stroke-width="1" fill="none" fill-rule="evenodd">
        <g id="Training-2" transform="translate(-31, -314)" fill="#775200" fill-rule="nonzero">
            <g id="编组-2备份-9" transform="translate(15, 298)">
                <g id="ranking" transform="translate(16, 16)">
                    <rect id="矩形" opacity="0" x="0" y="0" width="24" height="24"></rect>
                    <path d="M15.75,21 C15.3375,21 15,20.6625 15,20.25 L15,4.5 C15,4.0875 14.6625,3.75 14.25,3.75 L9.75,3.75 C9.3375,3.75 9,4.0875 9,4.5 L9,20.25 C9,20.6625 8.6625,21 8.25,21 C7.8375,21 7.5,20.6625 7.5,20.25 L7.5,4.5 C7.5,3.2625 8.5125,2.25 9.75,2.25 L14.25,2.25 C15.4875,2.25 16.5,3.2625 16.5,4.5 L16.5,20.25 C16.5,20.6625 16.1625,21 15.75,21 Z" id="路径"></path>
                    <path d="M20.25,21.75 L3.75,21.75 C2.5125,21.75 1.5,20.7375 1.5,19.5 L1.5,13.5 C1.5,12.2625 2.5125,11.25 3.75,11.25 L5.25,11.25 C5.6625,11.25 6,11.5875 6,12 C6,12.4125 5.6625,12.75 5.25,12.75 L3.75,12.75 C3.3375,12.75 3,13.0875 3,13.5 L3,19.5 C3,19.9125 3.3375,20.25 3.75,20.25 L20.25,20.25 C20.6625,20.25 21,19.9125 21,19.5 L21,9 C21,8.5875 20.6625,8.25 20.25,8.25 L18.75,8.25 C18.3375,8.25 18,7.9125 18,7.5 C18,7.0875 18.3375,6.75 18.75,6.75 L20.25,6.75 C21.4875,6.75 22.5,7.7625 22.5,9 L22.5,19.5 C22.5,20.7375 21.4875,21.75 20.25,21.75 Z" id="路径"></path>
                </g>
            </g>
        </g>
    </g>
</svg>