<?xml version="1.0" encoding="UTF-8"?>
<svg width="24px" height="24px" viewBox="0 0 24 24" version="1.1" xmlns="http://www.w3.org/2000/svg" xmlns:xlink="http://www.w3.org/1999/xlink">
    <title>招聘网站</title>
    <g id="页面-1" stroke="none" stroke-width="1" fill="none" fill-rule="evenodd">
        <g id="HC-3" transform="translate(-31, -1570)" fill="#775200" fill-rule="nonzero">
            <g id="编组-2备份-7" transform="translate(15, 1554)">
                <g id="招聘网站" transform="translate(16, 16)">
                    <rect id="矩形" opacity="0" x="0" y="0" width="24" height="24"></rect>
                    <path d="M11.9136657,12.010157 C13.1066482,12.010157 14.2682364,12.3084026 15.3042475,12.8891967 L15.3513389,12.920591 C15.712373,13.1246537 16.16759,13.0147738 16.3716528,12.6537396 C16.5757156,12.2927054 16.4658356,11.8374885 16.1048015,11.6334257 C16.0734072,11.6177285 16.0577101,11.6020314 16.0263158,11.5863343 C15.6181902,11.3508772 15.1943675,11.1625115 14.7391505,11.0055402 C15.7908587,10.1578947 16.4187442,8.85503232 16.4030471,7.50507849 C16.4030471,5.00923361 14.3781163,3 11.8979686,3 C9.40212373,3 7.39289012,5.02493075 7.39289012,7.50507849 C7.39289012,8.87072946 8.00507849,10.1578947 9.0567867,11.0055402 C5.82317636,12.1514312 3.5,15.2594645 3.5,18.9168975 L3.5,19.1209603 C3.51569714,19.5290859 3.86103416,19.8587258 4.28485688,19.8430286 C4.69298246,19.8273315 5.02262235,19.4819945 5.00692521,19.0581717 L5.00692521,18.9012004 C4.99122807,15.1024931 8.09926131,12.010157 11.9136657,12.010157 Z M11.9136657,4.47553093 C13.5775623,4.47553093 14.9275162,5.82548476 14.9275162,7.48938135 C14.9275162,9.15327793 13.5775623,10.5032318 11.9136657,10.5032318 C10.2497692,10.5032318 8.89981533,9.15327793 8.89981533,7.48938135 C8.89981533,5.82548476 10.2497692,4.47553093 11.9136657,4.47553093 Z M19.2913204,15.7931671 C19.2913204,15.3850416 18.9616805,15.0397045 18.5378578,15.0397045 L13.4362881,15.0397045 L13.6403509,14.8356417 C13.9385965,14.5373961 13.9385965,14.066482 13.6403509,13.7682364 C13.3421053,13.4699908 12.8711911,13.4699908 12.5729455,13.7682364 L11.0817175,15.2594645 L11.0503232,15.2908587 C11.0503232,15.2908587 11.0503232,15.3065559 11.034626,15.3065559 L11.0189289,15.322253 L11.0032318,15.3379501 L10.9875346,15.3536473 L10.9718375,15.3693444 L10.9718375,15.3850416 L10.9561404,15.4007387 L10.9561404,15.4164358 L10.9404432,15.432133 L10.9404432,15.4478301 C10.9404432,15.4478301 10.9404432,15.4635272 10.9247461,15.4635272 L10.9247461,15.4792244 C10.9247461,15.4792244 10.9247461,15.4949215 10.9090489,15.4949215 L10.9090489,16.0914127 C10.9090489,16.0914127 10.9090489,16.1071099 10.9247461,16.1071099 L10.9247461,16.122807 C10.9247461,16.122807 10.9247461,16.1385042 10.9404432,16.1385042 L10.9404432,16.1542013 L10.9561404,16.1698984 L10.9561404,16.1855956 L10.9718375,16.2012927 L10.9718375,16.2169898 L10.9875346,16.232687 L11.0032318,16.2483841 L11.0189289,16.2640813 L11.034626,16.2797784 C11.034626,16.2797784 11.034626,16.2954755 11.0503232,16.2954755 L11.0974146,16.3425669 C11.0974146,16.3425669 11.1131117,16.3425669 11.1131117,16.3582641 L11.1288089,16.3739612 L11.144506,16.3896584 L11.1602031,16.4053555 L11.1759003,16.4210526 L11.1915974,16.4210526 L11.2072946,16.4367498 L11.2229917,16.4367498 L11.2386888,16.4524469 L11.254386,16.4524469 C11.254386,16.4524469 11.2700831,16.4524469 11.2700831,16.468144 L11.2857802,16.468144 L11.3014774,16.4838412 L18.5221607,16.4838412 C18.9459834,16.5466297 19.2913204,16.2012927 19.2913204,15.7931671 L19.2913204,15.7931671 Z M20.4843029,18.3047091 L20.4843029,18.0378578 C20.4843029,18.0378578 20.4843029,18.0221607 20.4686057,18.0221607 L20.4686057,18.0064635 C20.4686057,18.0064635 20.4686057,17.9907664 20.4529086,17.9907664 L20.4529086,17.9750693 C20.4529086,17.9750693 20.4529086,17.9593721 20.4372114,17.9593721 L20.4372114,17.943675 L20.4215143,17.9279778 L20.4215143,17.9122807 L20.4058172,17.8965836 L20.39012,17.8808864 L20.3744229,17.8651893 L20.3587258,17.8494922 C20.3587258,17.8494922 20.3587258,17.833795 20.3430286,17.833795 L20.2959372,17.7867036 L20.2802401,17.7710065 L20.2645429,17.7553093 L20.2488458,17.7396122 L20.2331487,17.7239151 L20.2174515,17.7082179 L20.2017544,17.7082179 L20.1860572,17.6925208 L20.1703601,17.6925208 L20.154663,17.6768236 L20.1389658,17.6768236 L20.1232687,17.6611265 L20.1075716,17.6611265 L20.0918744,17.6454294 L12.8868883,17.6454294 C12.4787627,17.6454294 12.1334257,17.9750693 12.1334257,18.398892 C12.1334257,18.8070175 12.4630656,19.1523546 12.8868883,19.1523546 L17.9727608,19.1523546 L17.7686981,19.3564174 C17.4704524,19.654663 17.4704524,20.1255771 17.7686981,20.4238227 C18.0669437,20.7220683 18.5378578,20.7220683 18.8361034,20.4238227 L20.3273315,18.9325946 L20.3587258,18.9012004 C20.3587258,18.9012004 20.3587258,18.8855032 20.3744229,18.8855032 L20.39012,18.8698061 L20.4058172,18.854109 L20.4215143,18.8384118 L20.4372114,18.8227147 L20.4372114,18.8070175 L20.4529086,18.7913204 L20.4529086,18.7756233 C20.4529086,18.7756233 20.4529086,18.7599261 20.4686057,18.7599261 L20.4686057,18.744229 C20.4686057,18.744229 20.4686057,18.7285319 20.4843029,18.7285319 L20.4843029,18.7128347 C20.4843029,18.7128347 20.4843029,18.6971376 20.5,18.6971376 L20.5,18.398892 C20.4843029,18.3204063 20.4843029,18.3047091 20.4843029,18.3047091 L20.4843029,18.3047091 Z" id="形状"></path>
                </g>
            </g>
        </g>
    </g>
</svg>