<?xml version="1.0" encoding="UTF-8"?>
<svg width="24px" height="24px" viewBox="0 0 24 24" version="1.1" xmlns="http://www.w3.org/2000/svg" xmlns:xlink="http://www.w3.org/1999/xlink">
    <title>勋章</title>
    <g id="页面-1" stroke="none" stroke-width="1" fill="none" fill-rule="evenodd">
        <g id="DE&amp;I" transform="translate(-31, -1266)" fill="#775200" fill-rule="nonzero">
            <g id="编组-2备份-9" transform="translate(15, 1250)">
                <g id="勋章" transform="translate(16, 16)">
                    <rect id="矩形" opacity="0" x="0" y="0" width="24" height="24"></rect>
                    <path d="M15.6744141,9.67026563 L17.5620703,6.8623125 C17.6350062,6.75339086 17.6740093,6.62528917 17.6741484,6.49420313 L17.6741484,2.78395312 C17.6741484,2.05640625 17.0821641,1.46475 16.3549453,1.46475 L7.53796875,1.46475 C6.81072656,1.46475 6.21876562,2.05640625 6.21876562,2.78395312 L6.21876562,6.49420313 C6.21887781,6.62213728 6.25601222,6.74730517 6.3256875,6.85460156 L8.1795,9.6950625 C6.253125,10.936875 4.97496094,13.1012813 4.97496094,15.5588203 C4.97496094,19.4030391 8.10222656,22.5303281 11.9464453,22.5303281 C15.7906641,22.5303281 18.9179766,19.4030625 18.9179766,15.5588438 C18.9179766,13.0847813 17.6224922,10.9079297 15.6744141,9.67026563 L15.6744141,9.67026563 Z M11.9464453,8.5873125 C11.4604608,8.58719769 10.9757956,8.63788722 10.5003516,8.73855469 L10.5003516,2.78395312 L13.3925391,2.78395312 L13.3925391,8.73855469 C12.9170957,8.63788299 12.4324301,8.58719341 11.9464453,8.5873125 L11.9464453,8.5873125 Z M16.3549687,6.29322656 L14.7117656,8.73747656 L14.7117656,2.78395312 L16.3549687,2.78395312 L16.3549687,6.29322656 L16.3549687,6.29322656 Z M7.53796875,2.78395312 L9.18117188,2.78395312 L9.18117188,8.81620313 L7.53796875,6.29805469 L7.53796875,2.78395312 Z M11.9464453,21.2111719 C8.82944531,21.2111719 6.29411719,18.6754922 6.29411719,15.5588438 C6.29411719,12.4421953 8.82942188,9.90651563 11.9464453,9.90651563 C15.0634688,9.90651563 17.5987734,12.4421719 17.5987734,15.5588438 C17.5987734,18.6755156 15.0634453,21.2111719 11.9464687,21.2111719 L11.9464453,21.2111719 Z" id="形状"></path>
                    <path d="M11.9464688,10.9509844 C9.40598438,10.9509844 7.3389375,13.0180078 7.3389375,15.5588203 C7.3389375,18.0996328 9.40596094,20.1666797 11.9464688,20.1666797 C14.4875859,20.1666797 16.5546094,18.0996328 16.5546094,15.5588203 C16.5546094,13.0180078 14.4875859,10.9509844 11.9464688,10.9509844 L11.9464688,10.9509844 Z M11.9464688,18.8475234 C10.1332031,18.8475234 8.65814062,17.3720859 8.65814062,15.5588438 C8.65814062,13.7456016 10.1332031,12.2702344 11.9464688,12.2702344 C13.7597344,12.2702344 15.2354531,13.745625 15.2354531,15.5588672 C15.2354531,17.3721094 13.7597344,18.8475234 11.9464688,18.8475234 L11.9464688,18.8475234 Z" id="形状"></path>
                </g>
            </g>
        </g>
    </g>
</svg>