<?xml version="1.0" encoding="UTF-8"?>
<svg width="24px" height="24px" viewBox="0 0 24 24" version="1.1" xmlns="http://www.w3.org/2000/svg" xmlns:xlink="http://www.w3.org/1999/xlink">
    <title>等待</title>
    <g id="页面-1" stroke="none" stroke-width="1" fill="none" fill-rule="evenodd">
        <g id="Recruitment-2" transform="translate(-31, -714)" fill="#775200" fill-rule="nonzero">
            <g id="编组-2备份" transform="translate(15, 698)">
                <g id="等待" transform="translate(16, 16)">
                    <rect id="矩形" opacity="0" x="0" y="0" width="24" height="24"></rect>
                    <path d="M12.8571328,17.1428672 L11.1428906,17.1428672 C10.6286016,17.1428672 10.2857344,17.4857109 10.2857344,18 C10.2857344,18.5142891 10.6286016,18.8571328 11.1428906,18.8571328 L12.8571563,18.8571328 C13.3714453,18.8571328 13.7143125,18.5142891 13.7143125,18 C13.7143125,17.4857109 13.3714453,17.1428672 12.8571563,17.1428672 L12.8571328,17.1428672 Z M19.7142891,20.5714219 L18.8571094,20.5714219 C18.8571094,16.9714219 16.7999766,14.9142891 15.4285547,13.3714219 C14.9142656,12.8571328 14.2285547,12.3428672 14.2285547,12 C14.2285547,11.8285781 14.7428438,11.4857109 15.0856875,11.3142891 C16.4571094,10.2857109 18.8571094,8.4 18.8571094,3.42857812 L19.7142656,3.42857812 C20.2285547,3.42857812 20.5714453,3.08571094 20.5714453,2.57142187 C20.5714453,2.05713281 20.2285547,1.71428906 19.7142656,1.71428906 L4.28571094,1.71428906 C3.77142188,1.71428906 3.42857813,2.05713281 3.42857813,2.57142187 C3.42857813,3.08571094 3.77142188,3.42857812 4.28571094,3.42857812 L5.14286719,3.42857812 C5.14286719,8.4 7.54286719,10.2857109 8.91428906,11.3142891 C9.25713281,11.4857109 9.77142188,11.8285781 9.77142188,12 C9.77142188,12.3428672 9.08571094,12.8571328 8.57142188,13.5428672 C7.2,14.9142891 5.14289063,16.9714219 5.14289063,20.5714219 L4.28573438,20.5714219 C3.77144531,20.5714219 3.42857813,20.9142891 3.42857813,21.4285781 C3.42857813,21.9428672 3.77144531,22.2857109 4.28573438,22.2857109 L19.7143125,22.2857109 C20.2286016,22.2857109 20.5714453,21.9428672 20.5714453,21.4285781 C20.5714453,20.9142891 20.2286016,20.5714219 19.7143125,20.5714219 L19.7142891,20.5714219 Z M6.85710938,20.5714219 C6.85710938,17.6571328 8.57142188,15.9428672 9.77142188,14.5714219 C10.6285781,13.7142891 11.4857109,12.8571328 11.4857109,12 C11.4857109,10.9714219 10.8,10.4571328 9.94286719,9.94286719 C8.57142188,8.91428906 6.85710938,7.54286719 6.85710938,3.42857813 L17.1428906,3.42857813 C17.1428906,7.54286719 15.4286016,8.91428906 14.0571563,9.94286719 C13.2,10.4571094 12.5142891,10.9714219 12.5142891,12 C12.5142891,13.0285781 13.3714219,13.7142891 14.2285781,14.5714219 C15.4285781,15.9428672 17.1428906,17.6571328 17.1428906,20.5714219 L6.85710938,20.5714219 L6.85710938,20.5714219 Z" id="形状"></path>
                </g>
            </g>
        </g>
    </g>
</svg>