<?xml version="1.0" encoding="UTF-8"?>
<svg width="24px" height="24px" viewBox="0 0 24 24" version="1.1" xmlns="http://www.w3.org/2000/svg" xmlns:xlink="http://www.w3.org/1999/xlink">
    <title>日历</title>
    <g id="页面-1" stroke="none" stroke-width="1" fill="none" fill-rule="evenodd">
        <g id="Attendance" transform="translate(-31, -1162)" fill="#775200" fill-rule="nonzero">
            <g id="编组-2备份-2" transform="translate(15, 1146)">
                <g id="日历" transform="translate(16, 16)">
                    <rect id="矩形" opacity="0" x="0" y="0" width="24" height="24"></rect>
                    <path d="M16.9999922,4.00000781 L18.7510078,4.00000781 C20.2699922,4.00000781 21.4999922,5.23099219 21.4999922,6.75225 L21.4999922,18.7474922 C21.4999922,20.2677422 20.2695,21.4999922 18.7510078,21.4999922 L5.24899219,21.4999922 C3.73000781,21.4999922 2.50000781,20.2690078 2.50000781,18.74775 L2.50000781,6.75250781 C2.50000781,5.23225781 3.7305,4.00000781 5.24899219,4.00000781 L7.00000781,4.00000781 L7.00000781,3.25000781 C7.00000781,2.83579425 7.33579425,2.50000781 7.75000781,2.50000781 C8.16422137,2.50000781 8.50000781,2.83579425 8.50000781,3.25000781 L8.50000781,4.00000781 L15.4999922,4.00000781 L15.4999922,3.25000781 C15.4999922,2.83579425 15.8357786,2.50000781 16.2499922,2.50000781 C16.6642057,2.50000781 16.9999922,2.83579425 16.9999922,3.25000781 L16.9999922,4.00000781 Z M16.9999922,5.50000781 L16.9999922,6.25000781 C16.9999922,6.66422137 16.6642057,7.00000781 16.2499922,7.00000781 C15.8357786,7.00000781 15.4999922,6.66422137 15.4999922,6.25000781 L15.4999922,5.50000781 L8.50000356,5.50000781 L8.50000356,6.25000781 C8.50000356,6.66422137 8.16422137,7.00000781 7.75000781,7.00000781 C7.33579425,7.00000781 7.00000356,6.66422137 7.00000356,6.25000781 L7.00000356,5.50000781 L5.24899219,5.50000781 C4.91730022,5.50041158 4.59935703,5.63257751 4.3651209,5.86742461 C4.13088478,6.10227171 3.99954753,6.42055811 4.00000356,6.75225 L4.00000356,18.7474922 C3.99914242,19.0793312 4.1303411,19.3978793 4.36465753,19.6328553 C4.59897397,19.8678313 4.91715201,19.9999922 5.24899219,19.9999922 L18.7510078,19.9999922 C19.0826998,19.9995884 19.400643,19.8674225 19.6348791,19.6325754 C19.8691152,19.3977283 20.0004525,19.0794419 20.0000036,18.74775 L20.0000036,6.75250781 C20.0008576,6.42066876 19.8696589,6.10212068 19.6353425,5.86714469 C19.401026,5.63216871 19.082848,5.50000781 18.7510078,5.50000781 L16.9999922,5.50000781 L16.9999922,5.50000781 Z M16.7500078,10.7500078 C17.1642214,10.7500078 17.5000078,11.0857943 17.5000078,11.5000078 C17.5000078,11.9142214 17.1642214,12.2500078 16.7500078,12.2500078 L7.24999219,12.2500078 C6.83577863,12.2500078 6.49999219,11.9142214 6.49999219,11.5000078 C6.49999219,11.0857943 6.83577863,10.7500078 7.24999219,10.7500078 L16.7500078,10.7500078 L16.7500078,10.7500078 Z M13.7500078,14.5000078 C14.1642214,14.5000078 14.5000078,14.8357943 14.5000078,15.2500078 C14.5000078,15.6642214 14.1642214,16.0000078 13.7500078,16.0000078 L7.24999219,16.0000078 C6.83577863,16.0000078 6.49999219,15.6642214 6.49999219,15.2500078 C6.49999219,14.8357943 6.83577863,14.5000078 7.24999219,14.5000078 L13.7500078,14.5000078 L13.7500078,14.5000078 Z" id="形状"></path>
                </g>
            </g>
        </g>
    </g>
</svg>