<?xml version="1.0" encoding="UTF-8"?>
<svg width="32px" height="32px" viewBox="0 0 32 32" version="1.1" xmlns="http://www.w3.org/2000/svg" xmlns:xlink="http://www.w3.org/1999/xlink">
    <title>学生管理</title>
    <g id="页面-1" stroke="none" stroke-width="1" fill="none" fill-rule="evenodd">
        <g id="Training" transform="translate(-59, -314)" fill="#775200" fill-rule="nonzero">
            <g id="编组-2备份-5" transform="translate(15, 298)">
                <g id="学生管理" transform="translate(44, 16)">
                    <rect id="矩形" opacity="0" x="0" y="0" width="32" height="32"></rect>
                    <path d="M12.7773437,17.3710625 C10.9017187,16.2553438 9.6448125,14.2077188 9.6448125,11.8666875 C9.6448125,8.332 12.509875,5.4666875 16.0448125,5.4666875 C19.5794687,5.4666875 22.4448125,8.332 22.4448125,11.8666875 C22.4448125,14.2385625 21.1545312,16.3090625 19.2374687,17.4146563 C22.536125,18.372 25.2610625,20.7217188 26.7633437,23.7722812 L25.008,23.7722812 C23.0655937,20.6764062 19.6085312,18.4810625 15.9306562,18.4810625 C12.2526562,18.4810625 8.73653125,20.676375 6.75359375,23.7722812 L5.097875,23.7722812 C6.62346875,20.6745312 9.409875,18.2993437 12.7774687,17.3710625 L12.7773437,17.3710625 Z M16.0448125,16.6666875 C18.6954375,16.6666875 20.8448125,14.517625 20.8448125,11.8666875 C20.8448125,9.21575 18.6954375,7.0666875 16.0448125,7.0666875 C13.3935937,7.0666875 11.2448125,9.21575 11.2448125,11.8666875 C11.2448125,14.517625 13.3935937,16.6666875 16.0448125,16.6666875 Z" id="形状"></path>
                    <path d="M29.1333437,22.7333437 C29.5751715,22.7333437 29.9333437,23.091516 29.9333437,23.5333438 C29.9333437,23.9751715 29.5751715,24.3333438 29.1333438,24.3333438 C25.9529375,24.3333438 21.8844062,25.3005313 16.9431875,27.2452188 C16.3803367,27.4667181 15.7546054,27.4675217 15.1911875,27.2474688 C10.208,25.3013438 6.13853125,24.3333438 3,24.3333438 C2.5581722,24.3333438 2.2,23.9751715 2.2,23.5333438 C2.2,23.091516 2.5581722,22.7333437 3,22.7333437 C6.36853125,22.7333437 10.6205312,23.7446563 15.7733437,25.7570938 C15.9611418,25.8304648 16.1697189,25.8302193 16.3573438,25.7564063 C21.4693438,23.7444063 25.7226562,22.7333437 29.1333437,22.7333437 L29.1333437,22.7333437 Z" id="路径"></path>
                </g>
            </g>
        </g>
    </g>
</svg>