<?xml version="1.0" encoding="UTF-8"?>
<svg width="24px" height="24px" viewBox="0 0 24 24" version="1.1" xmlns="http://www.w3.org/2000/svg" xmlns:xlink="http://www.w3.org/1999/xlink">
    <title>icon_leftbar_study</title>
    <g id="页面-1" stroke="none" stroke-width="1" fill="none" fill-rule="evenodd">
        <g id="HC-2" transform="translate(-31, -842)" fill="#775200" fill-rule="nonzero">
            <g id="编组-2备份-5" transform="translate(15, 826)">
                <g id="icon_leftbar_study" transform="translate(16, 16)">
                    <rect id="矩形" opacity="0" x="0" y="0" width="24" height="24"></rect>
                    <path d="M20.5753942,7.88208885 L12.3014466,3.08240164 C12.1114297,2.97214489 11.8909162,2.97214489 11.7008993,3.08474753 L3.42460576,7.92900662 C3.16655806,8.08148935 3,8.40991369 3,8.77352636 C3,9.13713903 3.16655806,9.46556337 3.42460576,9.61570022 L5.4608367,10.795682 L5.4608367,16.9677138 C5.4608367,18.0069422 5.93236022,18.9452975 6.69008211,19.416821 C7.84660498,20.1370087 9.70924019,20.9979497 12.0058647,20.9979497 C14.3024892,20.9979497 16.1604327,20.1393546 17.3122638,19.416821 C18.0699857,18.9429516 18.5391633,18.0045963 18.5391633,16.9677138 L18.5391633,10.7604936 L20.5753942,9.56878245 C20.8334419,9.41629972 21,9.08787538 21,8.72426271 C21,8.36065004 20.8334419,8.0322257 20.5753942,7.88208885 Z M5.90186368,8.51547866 L11.8838785,5.01306761 C11.9566011,4.97084162 12.041053,4.97084162 12.1137756,5.01306761 L18.0957904,8.48263623 C18.2764238,8.58820119 18.2764238,8.87909133 18.0957904,8.9846563 L12.1137756,12.4870673 C12.041053,12.5292933 11.9566011,12.5292933 11.8838785,12.4870673 L5.90186368,9.01749873 C5.72357618,8.91193376 5.72357618,8.62104363 5.90186368,8.51547866 L5.90186368,8.51547866 Z M16.9322299,16.9700597 C16.9322299,17.425162 16.7469047,17.8474218 16.4747817,18.0186717 C15.4988922,18.6286026 13.929493,19.3581738 12.0082106,19.3581738 C10.0845823,19.3581738 8.51049133,18.6286026 7.52991007,18.0186717 C7.25544116,17.8474218 7.07011599,17.425162 7.07011599,16.9700597 L7.07011599,11.7293455 L11.7008993,14.4153874 C11.7970807,14.4716887 11.8979539,14.4974935 12.0011729,14.4974935 C12.104392,14.4974935 12.2052652,14.4693429 12.3014466,14.4130415 L16.9322299,11.7035407 L16.9322299,16.9700597 Z M20.1789391,16.6299059 C19.7261827,16.6299059 19.3578783,16.2616014 19.3578783,15.808845 L19.3578783,11.4900649 C19.3578783,11.0373085 19.7261827,10.669004 20.1789391,10.669004 C20.6316956,10.669004 21,11.0373085 21,11.4900649 L21,15.808845 C21,16.2616014 20.6316956,16.6299059 20.1789391,16.6299059 Z" id="形状"></path>
                </g>
            </g>
        </g>
    </g>
</svg>