<?xml version="1.0" encoding="UTF-8"?>
<svg width="24px" height="24px" viewBox="0 0 24 24" version="1.1" xmlns="http://www.w3.org/2000/svg" xmlns:xlink="http://www.w3.org/1999/xlink">
    <title>数据占比</title>
    <g id="页面-1" stroke="none" stroke-width="1" fill="none" fill-rule="evenodd">
        <g id="Training-2" transform="translate(-31, -1690)" fill="#775200" fill-rule="nonzero">
            <g id="编组-2备份-9" transform="translate(15, 1674)">
                <g id="数据占比" transform="translate(16, 16)">
                    <rect id="矩形" opacity="0" x="0" y="0" width="24" height="24"></rect>
                    <path d="M20.8005,15.0495 C20.4135771,14.889061 19.96934,15.0668891 19.8,15.45 C18.2912812,19.0169362 14.5919681,21.1428302 10.7505,20.6505 C6.9,20.1495 3.8505,17.1495 3.3495,13.3005 C2.8005,9.4995 4.9005,5.7495 8.4,4.2 C8.8005,4.05 8.9505,3.6 8.8005,3.1995 C8.6505,2.8005 8.2005,2.6505 7.8,2.8005 C3.6495,4.65 1.2,9.0495 1.8495,13.5495 C2.5005,18.0495 6.0495,21.6 10.5495,22.2 C10.9995,22.2495 11.4,22.3005 11.85,22.3005 C15.8505,22.3005 19.6005,19.9005 21.1995,16.0995 C21.3495,15.7005 21.15,15.2505 20.8005,15.0495 Z M19.0995,4.9005 C17.0895489,2.8767214 14.3527825,1.74225449 11.5005,1.75045536 C11.1,1.75045536 10.7505,2.1 10.7505,2.5005 L10.7505,12.4995 C10.7505,12.9 11.1,13.2495 11.5005,13.2495 L21.4995,13.2495 C21.9,13.2495 22.2495,12.9 22.2495,12.4995 C22.2495,9.6495 21.15,6.9495 19.0995,4.9005 L19.0995,4.9005 Z M12.2505,11.7495 L12.2505,3.3 C14.4495,3.45 16.4505,4.3995 18.0495,6 C19.6009914,7.5576616 20.5565303,9.61047767 20.7495,11.8005 L12.2505,11.8005 L12.2505,11.7495 L12.2505,11.7495 Z" id="形状"></path>
                </g>
            </g>
        </g>
    </g>
</svg>