<?xml version="1.0" encoding="UTF-8"?>
<svg width="24px" height="24px" viewBox="0 0 24 24" version="1.1" xmlns="http://www.w3.org/2000/svg" xmlns:xlink="http://www.w3.org/1999/xlink">
    <title>员工渠道APP-完成度</title>
    <g id="页面-1" stroke="none" stroke-width="1" fill="none" fill-rule="evenodd">
        <g id="Training" transform="translate(-31, -2094)" fill="#775200" fill-rule="nonzero">
            <g id="编组-2备份-3" transform="translate(15, 2078)">
                <g id="员工渠道APP-完成度" transform="translate(16, 16)">
                    <rect id="矩形" opacity="0" x="0" y="0" width="24" height="24"></rect>
                    <path d="M21.8398125,7.63671094 C21.3191953,6.40582031 20.5740234,5.30053125 19.6250156,4.35154688 C18.6760312,3.40253906 17.5707187,2.65736719 16.3398281,2.13675 C15.0651094,1.59759375 13.7114297,1.32421875 12.3164062,1.32421875 C10.9213828,1.32421875 9.56770312,1.59759375 8.29296094,2.13675 C7.06207031,2.65736719 5.95678125,3.40253906 5.00779688,4.35154687 C4.05878906,5.30055469 3.31361719,6.40584375 2.793,7.63671094 C2.25384375,8.91145312 1.98046875,10.2651328 1.98046875,11.6601562 C1.98046875,13.0551797 2.25384375,14.4088594 2.793,15.6835781 C2.9855133,16.1388943 3.21055591,16.5797604 3.46638281,17.0027578 L2.14884375,18.3203203 L6.66630469,18.9992812 L5.98734375,14.4818203 L4.49423437,15.9749297 C3.77135156,14.6688984 3.38671875,13.1941641 3.38671875,11.6601562 C3.38671875,9.27494531 4.31557031,7.03251562 6.00215625,5.34590625 C7.68874219,3.65929687 9.93119531,2.73046875 12.3164062,2.73046875 C14.7016172,2.73046875 16.9440469,3.65932031 18.6306562,5.34590625 C20.3172422,7.03251562 21.2460938,9.27494531 21.2460938,11.6601562 C21.2460938,14.0453672 20.3172422,16.2877969 18.6306562,17.9744063 C16.9440469,19.6609922 14.7016172,20.5898438 12.3164062,20.5898438 C11.8548241,20.5899469 11.3939099,20.5547505 10.9376953,20.4845625 C10.7625968,20.9304457 10.5864478,21.3759157 10.40925,21.8209687 C11.033625,21.9374062 11.6705625,21.9961172 12.3164062,21.9961172 C13.7114297,21.9961172 15.0651094,21.7227422 16.3398281,21.1835859 C17.5707187,20.6629687 18.6760312,19.9177969 19.6250156,18.9687891 C20.5740234,18.0198047 21.3191953,16.9144922 21.8398125,15.6836016 C22.3789687,14.4088594 22.6523438,13.0551797 22.6523438,11.6601562 C22.6523438,10.2651328 22.3789687,8.91145312 21.8398125,7.63671094 Z M10.9508906,14.9406328 L10.9514297,14.941125 L10.9515,14.9411484 C11.0964844,15.0714141 11.2881563,15.1507266 11.4983906,15.1507266 C11.7086016,15.1507266 11.9002969,15.0713906 12.0452578,14.9411719 L12.0453516,14.9411719 L12.0458906,14.9406094 C12.0673062,14.9213422 12.0876863,14.9009542 12.1069453,14.8795312 L18.1478672,8.83863281 C18.4670859,8.51941406 18.4670859,8.00179687 18.1478437,7.68250781 C17.8286016,7.36326562 17.3109375,7.36326562 16.9916953,7.68253125 L11.4983906,13.1758359 L8.32073438,9.99820312 C8.00149219,9.67896094 7.483875,9.67896094 7.16460937,9.99822656 C6.84532031,10.3174687 6.84534375,10.8350859 7.16460937,11.1543281 L10.8897656,14.8794609 C10.9090719,14.9008922 10.9294742,14.9213101 10.9508906,14.9406328 L10.9508906,14.9406328 Z" id="形状"></path>
                </g>
            </g>
        </g>
    </g>
</svg>