<?xml version="1.0" encoding="UTF-8"?>
<svg width="32px" height="32px" viewBox="0 0 32 32" version="1.1" xmlns="http://www.w3.org/2000/svg" xmlns:xlink="http://www.w3.org/1999/xlink">
    <title>课程管理_m</title>
    <g id="页面-1" stroke="none" stroke-width="1" fill="none" fill-rule="evenodd">
        <g id="Training" transform="translate(-199, -314)" fill="#5579ED" fill-rule="nonzero">
            <g id="编组-2备份-7" transform="translate(153, 298)">
                <g id="课程管理_m" transform="translate(46, 16)">
                    <rect id="矩形" opacity="0" x="0" y="0" width="32" height="32"></rect>
                    <path d="M15.0660225,22.3885818 L8.38280943,29.0719205 C8.0425917,29.4121469 7.49098275,29.412154 7.15075634,29.0719362 C6.81052994,28.7317185 6.81052291,28.1801096 7.15074064,27.8398832 L12.602042,22.3885818 L15.0660225,22.3885818 L15.0660225,22.3885818 Z M19.1366177,22.3885818 L24.5879191,27.8398832 C24.9281455,28.1801096 24.9281455,28.7317255 24.5879191,29.0719519 C24.2476926,29.4121783 23.6960767,29.4121783 23.3558503,29.0719519 L16.6726372,22.3885818 L19.1366177,22.3885818 L19.1366177,22.3885818 Z M27.6222623,7.74227921 C27.6473,7.87483399 27.659867,8.00944256 27.6597985,8.14434123 L27.6597985,21.8144498 C27.6597985,22.9988052 26.6998126,23.9587911 25.5154573,23.9587911 L6.48454272,23.9587911 C5.30018738,23.9587911 4.34020149,22.9988052 4.34020149,21.8144498 L4.34020149,8.14434123 C4.34020149,8.00698051 4.35308004,7.87254102 4.37773775,7.74227921 L3.87113961,7.74227921 C3.39002249,7.74227921 3,7.35225673 3,6.87113961 C3,6.39002249 3.39002249,6 3.87113961,6 L28.1288604,6 C28.6099775,6 29,6.39002249 29,6.87113961 C29,7.35225673 28.6099775,7.74227921 28.1288604,7.74227921 L27.6222623,7.74227921 Z M26.0117526,7.74227921 L5.98824742,7.74227921 C5.96211847,7.78579089 5.94844911,7.8356078 5.94844911,7.88636191 L5.94844911,22.0724292 C5.94844911,22.2260294 6.07173811,22.350543 6.22386204,22.350543 L25.776138,22.350543 C25.9282619,22.350543 26.0515506,22.2259038 26.0515506,22.0724292 L26.0515506,7.88636191 C26.0515506,7.83561357 26.0378418,7.78580791 26.0117526,7.74227921 Z M8.36082167,11.0928065 L13.9896899,11.0928065 C14.4337954,11.0928065 14.7938139,11.4528251 14.7938139,11.8969305 C14.7938139,12.341036 14.4337954,12.7010546 13.9896899,12.7010546 L8.36082167,12.7010546 C7.91671622,12.7010546 7.55669763,12.341036 7.55669763,11.8969305 C7.55669763,11.4528251 7.91671622,11.0928065 8.36082167,11.0928065 L8.36082167,11.0928065 Z M8.36082167,15.9175507 L22.1649614,15.9175507 C22.6090668,15.9175507 22.9690854,16.2775693 22.9690854,16.7216747 C22.9690854,17.1657802 22.6090668,17.5257988 22.1649614,17.5257988 L8.36082167,17.5257988 C7.91671622,17.5257988 7.55669763,17.1657802 7.55669763,16.7216747 C7.55669763,16.2775693 7.91671622,15.9175507 8.36082167,15.9175507 L8.36082167,15.9175507 Z M16.804124,11.0928065 L17.3402172,11.0928065 C17.7843226,11.0928065 18.1443412,11.4528251 18.1443412,11.8969305 C18.1443412,12.341036 17.7843226,12.7010546 17.3402172,12.7010546 L16.804124,12.7010546 C16.3600186,12.7010546 16,12.341036 16,11.8969305 C16,11.4528251 16.3600186,11.0928065 16.804124,11.0928065 L16.804124,11.0928065 Z" id="形状"></path>
                </g>
            </g>
        </g>
    </g>
</svg>