<?xml version="1.0" encoding="UTF-8"?>
<svg width="96px" height="31px" viewBox="0 0 96 31" version="1.1" xmlns="http://www.w3.org/2000/svg" xmlns:xlink="http://www.w3.org/1999/xlink">
    <title>Swire Logo</title>
    <g id="页面-1" stroke="none" stroke-width="1" fill="none" fill-rule="evenodd">
        <g id="HC-1" transform="translate(-318, -122)">
            <g id="矩形-2" transform="translate(0, 106)">
                <g id="Swire-Logo" transform="translate(318, 15.9993)">
                    <polygon id="Fill-3" fill="#FEFEFE" points="0.469668418 16.3173088 23.7351093 16.3173088 23.7351093 0.221720314 0.469668418 0.221720314"></polygon>
                    <polygon id="Fill-5" fill="#E73830" points="0.469331336 0.298976317 12.0998045 8.27033769 0.469331336 16.242875"></polygon>
                    <polygon id="Fill-6" fill="#E73830" points="23.7343227 0.298976317 12.1004787 8.27033769 23.7343227 16.242875"></polygon>
                    <polygon id="Fill-7" fill="#004898" points="10.5237187 16.3173088 13.6788118 16.3173088 13.6788118 0.221720314 10.5237187 0.221720314"></polygon>
                    <path d="M0.273036904,16.5242655 L23.9317408,16.5242655 L23.9317408,0.0171153757 L0.273036904,0.0171153757 L0.273036904,16.5242655 Z M0.667423542,16.1068244 L23.5384777,16.1068244 L23.5384777,0.433380596 L0.667423542,0.433380596 L0.667423542,16.1068244 Z" id="Fill-8" fill="#231916"></path>
                    <path d="M3.12587928,31.0006529 C2.17755358,31.0006529 1.14608083,30.6960973 0.426971289,30.226917 L0,28.5700873 L0.0415735203,28.5700873 C1.22922787,29.7800786 2.17755358,30.216334 3.12587928,30.216334 C4.07420499,30.216334 4.89781013,29.6813038 4.89781013,28.4372117 C4.89781013,27.532952 4.30342115,27.2272204 2.89666312,26.4429015 C1.2595653,25.5268829 0.217980079,24.806062 0.217980079,23.3326713 C0.217980079,21.7099424 1.75058229,21.1760882 3.24048737,21.1760882 C4.04274395,21.1760882 4.83488805,21.3183709 5.37759103,21.4924027 L5.74164023,22.9540345 L5.70905558,22.9540345 C5.13713878,22.3966625 4.10566603,21.9168992 3.13599176,21.9168992 C2.35508374,21.9168992 1.57305212,22.3096466 1.57305212,23.1915644 C1.57305212,23.9464861 1.96968597,24.3380576 3.87532626,25.3516752 C5.79332623,26.3770517 6.36636665,27.1296215 6.36636665,28.4278046 C6.36636665,30.2716008 4.6989314,31.0006529 3.12587928,31.0006529 M16.1642341,24.2290526 L14.4979225,30.8810649 L14.4147755,30.8810649 C14.0496026,30.8810649 13.7473519,30.6741081 13.4765622,29.9097793 L11.6742939,24.9275315 L10.0585447,29.7686725 C9.84056461,30.4236435 9.56865132,30.8810649 8.99785812,30.8810649 L8.91358747,30.8810649 L7.33941174,24.5230252 C7.12143166,23.6411073 6.98547502,23.4658997 6.57985229,23.1272432 L6.57985229,23.0954942 L8.77763082,23.0954942 L8.77763082,23.1272432 C8.5798757,23.3247928 8.50796475,23.5188147 8.50796475,23.7387062 C8.50796475,23.9468389 8.55852714,24.1749616 8.62144922,24.4477682 L9.67314692,28.8103218 L11.3203572,23.7504651 C11.4754152,23.280109 11.6956425,23.0414032 12.1529512,23.0414032 L12.3203689,23.0414032 L14.3619658,28.6021892 L15.3631012,24.4019085 C15.4147872,24.2055348 15.4361357,24.0432619 15.4361357,23.891572 C15.4361357,23.5975994 15.3215276,23.3788838 15.0597268,23.1272432 L15.0597268,23.0954942 L16.8114327,23.0954942 L16.8114327,23.1272432 C16.4979459,23.4553166 16.3215393,23.5975994 16.1642341,24.2290526 M19.1658423,24.2932562 L19.1658423,29.5953462 C19.1658423,30.1280246 19.2287644,30.456098 19.6242746,30.7594778 L19.6242746,30.7924027 L17.4680696,30.7924027 L17.4680696,30.7594778 C17.8647035,30.456098 17.9366144,30.1280246 17.9366144,29.5953462 L17.9366144,24.2932562 C17.9366144,23.7605778 17.8647035,23.4336803 17.4680696,23.1279487 L17.4680696,23.0950238 L19.6343871,23.0950238 L19.6343871,23.1279487 C19.2388769,23.4336803 19.1658423,23.7605778 19.1658423,24.2932562 M24.2656773,29.8239393 L23.0780229,27.6532456 C22.8778163,27.2865815 22.8419722,27.2445021 22.5872313,27.2398816 L22.0881237,27.2393321 L22.0881237,29.5946407 C22.0881237,30.1296709 22.1499222,30.4553925 22.546556,30.761124 L22.546556,30.7928731 L20.3892274,30.7928731 L20.3892274,30.761124 C20.7858613,30.4553925 20.8588958,30.1296709 20.8588958,29.5946407 L20.8588958,24.2937265 C20.8588958,23.7610482 20.7858613,23.4329747 20.3892274,23.1272432 L20.3892274,23.0954942 L23.16117,23.0954942 C24.8173691,23.0954942 25.8477183,23.6505145 25.8477183,25.0686383 C25.8477183,26.1492817 25.1611934,26.8348258 24.1611817,27.1088083 L25.452208,29.452358 C25.8593649,30.1813093 26.325865,30.4966214 26.9087123,30.7597421 C27.3036904,30.4553925 27.3980735,30.1296709 27.3980735,29.5946407 L27.3980735,24.2937265 C27.3980735,23.7610482 27.3036904,23.4329747 26.9070565,23.1272432 L26.9070565,23.0954942 L31.7217196,23.0954942 L31.9812732,24.2184695 L31.9610482,24.2184695 C31.5340769,23.859823 31.2835122,23.6834394 30.4295696,23.6834394 L29.0430366,23.6834394 C28.6980887,23.6834394 28.6160653,23.9468389 28.6160653,24.0879457 L28.6160653,26.4550132 L31.2205901,26.4550132 L31.2947483,27.3251721 L31.2632873,27.3251721 C31.1273306,27.2064072 30.8969908,27.0429584 30.5127167,27.0429584 L28.6160653,27.0429584 L28.6160653,29.462941 C28.6160653,30.09557 28.7093248,30.2049278 29.0430366,30.2049278 L30.4295696,30.2049278 C31.4913798,30.2049278 31.7531806,30.0508862 32.4093681,29.462941 L32.429593,29.462941 L32.1071174,30.7928731 L25.7758073,30.7928731 C25.2342279,30.7928731 24.7757956,30.7493651 24.2656773,29.8239393 Z M22.9937523,23.6834394 L22.5038589,23.6834394 C22.1813832,23.6834394 22.0881237,23.7492893 22.0881237,24.1526197 L22.0881237,26.650211 L22.8690317,26.650211 C23.7746603,26.650211 24.5263545,26.1375228 24.5263545,25.0686383 C24.5263545,24.0009298 23.9005045,23.6834394 22.9937523,23.6834394 Z M37.7497677,27.3249369 L36.749756,27.3249369 L36.749756,29.5955814 C36.749756,30.1294357 36.8126781,30.4551573 37.2081883,30.7608888 L37.2081883,30.7926379 L35.0519833,30.7926379 L35.0519833,30.7608888 C35.4474935,30.4551573 35.5205281,30.1294357 35.5205281,29.5955814 L35.5205281,24.1864853 C35.5205281,23.6502793 35.4474935,23.4339154 35.0519833,23.1281839 L35.0519833,23.095259 L37.8744882,23.095259 C39.531811,23.095259 40.5318227,23.771396 40.5318227,25.1906958 C40.5318227,26.6064679 39.4070904,27.3249369 37.7497677,27.3249369 M37.6565082,23.6832042 L37.1666148,23.6832042 C36.7913295,23.6832042 36.749756,23.781979 36.749756,24.1864853 L36.749756,26.7369917 L37.6565082,26.7369917 C38.5632603,26.7369917 39.2082117,26.2584043 39.2082117,25.1906958 C39.2082117,24.1194596 38.6576435,23.6832042 37.6565082,23.6832042 M51.4346469,22.8881847 C53.9987219,22.8881847 55.2886246,24.8954297 55.2886246,26.9109059 C55.2886246,28.9510759 53.9762497,31.0006529 51.3312749,31.0006529 C48.7683236,31.0006529 47.4840389,28.9945838 47.4840389,26.9767558 C47.4840389,24.9377617 48.7874249,22.8881847 51.4346469,22.8881847 Z M43.8853451,23.0954942 C45.5437915,23.0954942 46.5752642,23.6505145 46.5752642,25.0686383 C46.5752642,26.1492817 45.8876157,26.8348258 44.8853568,27.1088083 L46.179754,29.452358 C46.5865003,30.1825859 47.0550451,30.5000763 47.6404452,30.761124 L47.6404452,30.7928731 L46.5022297,30.7928731 C45.9617739,30.7928731 45.502218,30.7493651 44.9898524,29.8239393 L43.8021981,27.6532456 C43.6030129,27.2865815 43.5691189,27.2445021 43.3138799,27.2398816 L42.8122988,27.2393321 L42.8122988,29.5946407 C42.8122988,30.1296709 42.8752209,30.4553925 43.2718548,30.761124 L43.2718548,30.7928731 L41.1156498,30.7928731 L41.1156498,30.761124 C41.51116,30.4553925 41.5841946,30.1296709 41.5841946,29.5946407 L41.5841946,24.2949024 C41.5841946,23.7610482 41.51116,23.4341506 41.1156498,23.1272432 L41.1156498,23.0954942 L43.8853451,23.0954942 Z M51.3829609,23.5419798 C49.6335023,23.5419798 48.8098971,25.1682363 48.8098971,26.7792062 C48.8098971,28.5042375 49.7267618,30.3468578 51.3930734,30.3468578 C53.1447793,30.3468578 53.9672609,28.7229531 53.9672609,27.1084555 C53.9672609,25.3846001 53.0503962,23.5419798 51.3829609,23.5419798 Z M43.7201746,23.6834394 L43.2302813,23.6834394 C42.9078056,23.6834394 42.8122988,23.7504651 42.8122988,24.1537956 L42.8122988,26.650211 L43.5943305,26.650211 C44.5010826,26.650211 45.2505296,26.1375228 45.2505296,25.0686383 C45.2505296,24.0009298 44.6258032,23.6834394 43.7201746,23.6834394 Z M58.803722,27.3249369 L57.8048339,27.3249369 L57.8048339,29.5955814 C57.8048339,30.1294357 57.8666323,30.4551573 58.2621426,30.7608888 L58.2621426,30.7926379 L56.104814,30.7926379 L56.104814,30.7608888 C56.5014478,30.4551573 56.5744824,30.1294357 56.5744824,29.5955814 L56.5744824,24.1864853 C56.5744824,23.6502793 56.5014478,23.4339154 56.104814,23.1281839 L56.104814,23.095259 L58.9295661,23.095259 C60.5846417,23.095259 61.585777,23.771396 61.585777,25.1906958 C61.585777,26.6064679 60.4610447,27.3249369 58.803722,27.3249369 M58.7104624,23.6832042 L58.2194455,23.6832042 C57.8452838,23.6832042 57.8048339,23.781979 57.8048339,24.1864853 L57.8048339,26.7369917 L58.7104624,26.7369917 C59.6172146,26.7369917 60.2632896,26.2584043 60.2632896,25.1906958 C60.2632896,24.1194596 59.7115977,23.6832042 58.7104624,23.6832042 M67.4650593,30.7928731 L62.266122,30.7928731 L62.266122,30.761124 C62.6616323,30.4553925 62.7548918,30.1296709 62.7548918,29.5946407 L62.7548918,24.2949024 C62.7548918,23.7610482 62.6616323,23.4341506 62.266122,23.1272432 L62.266122,23.0954942 L67.0807851,23.0954942 L67.3403387,24.2184695 L67.3178665,24.2184695 C66.8920189,23.859823 66.6425777,23.6834394 65.7875116,23.6834394 L64.4021021,23.6834394 C64.0560306,23.6834394 63.9751308,23.9480147 63.9751308,24.0879457 L63.9751308,26.4538373 L66.5796557,26.4538373 L66.6515666,27.3251721 L66.6201056,27.3251721 C66.4852725,27.2052313 66.25718,27.0441343 65.8706586,27.0441343 L63.9751308,27.0441343 L63.9751308,29.462941 C63.9751308,30.09557 64.0683903,30.2049278 64.4021021,30.2049278 L65.7875116,30.2049278 C66.8504453,30.2049278 67.1111226,30.0508862 67.7684336,29.462941 L67.787535,29.462941 L67.4650593,30.7928731 Z M71.1389225,23.0954942 C72.7939981,23.0954942 73.827718,23.6505145 73.827718,25.0686383 C73.827718,26.1492817 73.1389459,26.8348258 72.1389342,27.1088083 L73.4310842,29.452358 C73.8378305,30.1825859 74.3052517,30.5000763 74.8906518,30.761124 L74.8906518,30.7928731 L73.7535598,30.7928731 C73.2131041,30.7928731 72.7535481,30.7493651 72.2434298,29.8239393 L71.0557755,27.6532456 C70.8555688,27.2865815 70.821582,27.2445021 70.5663346,27.2398816 L70.0669998,27.2393321 L70.0669998,29.5946407 C70.0669998,30.1296709 70.1265511,30.4553925 70.5254322,30.761124 L70.5254322,30.7928731 L68.3658563,30.7928731 L68.3658563,30.761124 C68.7647374,30.4553925 68.8355248,30.1296709 68.8355248,29.5946407 L68.8355248,24.2949024 C68.8355248,23.7610482 68.7647374,23.4341506 68.3658563,23.1272432 L68.3658563,23.0954942 L71.1389225,23.0954942 Z M80.5900444,23.0960821 L80.8922951,24.4471802 L80.849598,24.4471802 C80.3597046,23.913326 80.0473414,23.6840273 79.485537,23.6840273 L78.8091246,23.6840273 C78.4754129,23.6840273 78.3810297,23.7392942 78.3810297,24.3719233 L78.3810297,29.5952286 C78.3810297,30.1290829 78.4641768,30.4548046 78.859687,30.7605361 L78.859687,30.7922851 L76.6607849,30.7922851 L76.6607849,30.7605361 C77.0585424,30.4548046 77.1495547,30.1290829 77.1495547,29.5952286 L77.1495547,24.3719233 C77.1495547,23.7392942 77.0675312,23.6840273 76.7338195,23.6840273 L76.057407,23.6840273 C75.4944791,23.6840273 75.1821159,23.913326 74.6922225,24.4471802 L74.6517726,24.4471802 L74.9528997,23.0960821 L80.5900444,23.0960821 Z M70.9715048,23.6834394 L70.4827351,23.6834394 C70.1591358,23.6834394 70.0669998,23.7504651 70.0669998,24.1537956 L70.0669998,26.650211 L70.8467843,26.650211 C71.75466,26.650211 72.5052306,26.1375228 72.5052306,25.0686383 C72.5052306,24.0009298 71.878257,23.6834394 70.9715048,23.6834394 Z M83.3020986,24.2944321 L83.3020986,29.5953462 C83.3020986,30.1292005 83.3650207,30.4549222 83.7594073,30.7606537 L83.7594073,30.7924027 L81.6020787,30.7924027 L81.6020787,30.7606537 C81.9987125,30.4549222 82.0717471,30.1292005 82.0717471,29.5953462 L82.0717471,24.2944321 C82.0717471,23.7605778 81.9987125,23.4348561 81.6020787,23.1279487 L81.6020787,23.0950238 L83.7706434,23.0950238 L83.7706434,23.1279487 C83.3740095,23.4348561 83.3020986,23.7605778 83.3020986,24.2944321 M89.7331851,30.7928731 L84.5331242,30.7928731 L84.5331242,30.761124 C84.9297581,30.4553925 85.0230176,30.1296709 85.0230176,29.5946407 L85.0230176,24.2949024 C85.0230176,23.7610482 84.9297581,23.4341506 84.5331242,23.1272432 L84.5331242,23.0954942 L89.3477873,23.0954942 L89.6073409,24.2184695 L89.587116,24.2184695 C89.1590211,23.859823 88.9095799,23.6834394 88.0556374,23.6834394 L86.6691043,23.6834394 C86.3264036,23.6834394 86.2432566,23.9480147 86.2432566,24.0879457 L86.2432566,26.4538373 L88.8466578,26.4538373 L88.9185688,27.3251721 L88.889355,27.3251721 C88.7522747,27.2052313 88.5230586,27.0441343 88.1376608,27.0441343 L86.2432566,27.0441343 L86.2432566,29.462941 C86.2432566,30.09557 86.3365161,30.2049278 86.6691043,30.2049278 L88.0556374,30.2049278 C89.1174475,30.2049278 89.3792484,30.0508862 90.0354358,29.462941 L90.0556608,29.462941 L89.7331851,30.7928731 Z M93.2170461,31.0006529 C92.3619799,31.0006529 91.6338815,30.7925203 90.9664579,30.3915417 L90.6024087,28.9828249 L90.6338698,28.9828249 C91.5821955,29.9435274 92.4260256,30.3468578 93.2170461,30.3468578 C94.0114374,30.3468578 94.7496483,30.0082014 94.7496483,28.9722419 C94.7496483,28.2761147 94.2496424,27.9268753 93.0091785,27.2401552 C91.7057924,26.5087514 90.8720748,25.8972883 90.8720748,24.6755382 C90.8720748,23.1915644 92.2900689,22.8881847 93.3013167,22.8881847 C94.1530121,22.8881847 94.6979623,23.0410504 95.2507777,23.1715743 L95.5328035,24.3603995 L95.5103313,24.3603995 C94.8024579,23.8042033 94.1664954,23.5419798 93.3013167,23.5419798 C92.5720947,23.5419798 92.0709653,23.8700532 92.0709653,24.5120894 C92.0709653,25.0812204 92.1866969,25.375193 93.8226711,26.2582867 C95.34179,27.0755306 96.0002247,27.7622506 96.0002247,28.841718 C96.0002247,30.3562649 94.7080748,31.0006529 93.2170461,31.0006529" id="形状结合" fill="#231916"></path>
                    <path d="M54.0629923,4.49843389 L54.0629923,2.43592204 C54.0629923,1.42583214 54.1483866,0.814369103 54.876485,0.179388258 L51.9753274,0.179388258 L51.9753274,4.49843389 L45.8685144,4.49843389 L45.8685144,5.43209091 L51.9753274,5.43209091 L51.9753274,9.49479242 L48.0123597,9.49479242 L48.0123597,16.2643938 L58.1169723,16.2643938 L58.1169723,9.49479242 L54.0629923,9.49479242 L54.0629923,5.43209091 L59.7068786,5.43209091 L60.2641885,3.18849193 C59.6945189,3.57418399 58.3933801,4.49843389 56.1394211,4.49843389 L54.0629923,4.49843389 Z M49.923618,15.3613099 L56.200096,15.3613099 L56.200096,10.3978763 L49.923618,10.3978763 L49.923618,15.3613099 Z M37.2672901,5.43561858 L42.6460048,5.43561858 L43.2044383,3.19319549 C42.6358923,3.57888756 41.3347534,4.50313745 39.0796709,4.50313745 L36.4987418,4.50313745 C36.5762708,3.62592317 36.6897553,2.36772039 36.753801,1.83621791 C36.868409,0.876691297 37.2436943,0.459250186 37.5897658,0.179388258 L34.6144501,0.179388258 C34.6144501,0.179388258 34.6178209,1.18007103 34.6110792,1.5293105 C34.5874835,2.76987493 34.5099545,3.81053798 34.4459088,4.50313745 L28.8076405,4.50313745 L28.8076405,5.43561858 L34.3414132,5.43561858 C34.0852304,7.5392866 33.4515151,9.51360667 32.4402673,11.3609306 C31.4380084,13.2094304 29.9312492,14.8298074 28.5244912,16.0339192 L28.5368509,16.2585143 C30.5391215,15.4236321 32.4829645,14.0419608 33.8807336,12.1640638 C33.9908473,12.0147257 34.0975901,11.8618599 34.2020857,11.7089941 C34.6942263,12.2393207 35.0728824,13.0965449 35.0728824,13.9008539 C35.0728824,14.7627817 35.6065965,15.2296102 36.2324465,15.2013888 C36.9099826,15.1696397 37.2965039,14.5652321 37.2639193,13.9208441 C37.2358291,13.3540649 36.9470616,12.7966928 36.340313,12.2840046 C35.7751378,11.8065931 35.1897377,11.5102687 34.4189422,11.3797448 C35.5009773,9.67470366 36.2245813,7.66510688 36.4167184,5.43561858 L36.7582954,5.43561858 C36.8920048,7.0959759 37.3841454,8.95858638 37.9437025,10.2602971 C38.6470815,11.8912572 39.2223692,12.8402008 40.0650757,13.9620003 C41.0628402,15.2895806 42.6201618,16.2585143 42.6201618,16.2585143 L44.1831014,14.1336803 C40.7482297,12.7037975 37.9560622,9.2019957 37.2672901,5.43561858 L37.2672901,5.43561858 Z M77.1452849,11.9159509 C77.0430366,12.9366238 76.7497747,14.0454885 76.0767331,14.2265756 C75.8452697,14.2900737 75.4947038,14.3030085 75.4947038,14.3030085 L70.6991421,14.3030085 L70.6991421,6.18936436 L72.3137677,5.48735776 L72.3137677,12.365141 L73.9778321,12.365141 L73.9778321,9.57945654 L74.896944,11.0516714 C75.3890846,11.0528473 76.1025761,11.0046358 76.6497735,10.5095859 C77.1261836,10.0815618 77.2789944,9.60532613 77.2789944,9.07382364 L77.2789944,2.62641629 L73.9778321,4.03042949 L73.9778321,2.44885683 C73.9778321,1.43641515 74.0632264,0.827303898 74.7913248,0.189971272 L72.3137677,0.189971272 L72.3137677,4.73713965 L70.6991421,5.42268379 L70.6991421,1.7503779 L69.0114819,1.7503779 L69.0114819,6.13997696 L67.3957326,6.8255211 L67.0451667,8.39415896 C67.5260712,7.85560113 67.9440537,7.44403947 69.0114819,6.92899946 L69.0114819,15.8728222 L75.5025691,15.8728222 C75.6542563,15.8657669 75.98235,15.843425 75.98235,15.843425 C77.9239457,15.7070217 78.0228233,14.78042 78.0228233,14.78042 C77.6284367,13.3470095 77.2789944,11.9159509 77.2789944,11.9159509 L77.1452849,11.9159509 Z M73.9778321,4.76536102 L75.5969522,4.05982675 L75.5969522,8.4882302 C75.5969522,9.2137546 75.0924519,9.70292503 73.9778321,9.08558255 L73.9778321,4.76536102 Z M66.1597631,11.1880747 L66.1597631,5.81895887 L67.8092206,5.81895887 L67.8092206,4.9652624 L66.1597631,4.9652624 L66.1597631,2.76517136 L66.1575159,2.76517136 C66.1889769,2.00319435 66.3440349,1.4799231 66.9631433,0.941365271 L64.5001931,0.941365271 L64.5001931,4.9652624 L62.9439951,4.9652624 L62.9439951,5.81895887 L64.5001931,5.81895887 L64.5001931,11.6513755 C63.8473765,11.7830752 63.2439986,11.88185 62.513653,11.9982632 C63.0170297,13.0918413 63.5597327,14.2430381 63.5597327,14.2430381 C65.1721111,13.2635213 67.1395499,11.8959607 68.2777654,10.604833 L68.1811351,10.4343289 C67.4620255,10.7471158 66.8249394,10.9752385 66.1597631,11.1880747 L66.1597631,11.1880747 Z M91.09601,6.53860383 C91.4083732,6.03532271 91.8095015,5.39328652 92.1342244,4.86060815 C92.7769286,3.8070103 93.5960393,3.7705577 93.5960393,3.7705577 L91.3342151,2.59466725 L95.6713445,2.59466725 L95.6713445,1.74802612 L90.4151032,1.74802612 C90.4364517,1.5657631 90.4106087,1.37644474 90.3375742,1.1965335 C90.1622912,0.764981704 89.7813879,0.41926991 89.1600323,0.202906067 C88.5173282,-0.0228648997 87.9139503,-0.0722522987 87.1645033,0.115890174 L87.1060757,0.308736208 C87.6802397,0.514517037 88.2858648,1.08835158 88.5476656,1.74802612 L82.2307377,1.74802612 L82.2307377,2.59466725 L91.1611793,2.59466725 L89.6263299,6.53860383 L87.5218109,6.53860383 C87.8555227,6.30695341 88.0319292,5.88128106 88.009457,5.43914625 C87.9813668,4.87236705 87.6914758,4.31734676 87.0869743,3.80230674 C86.4577535,3.27080426 85.8083077,2.96154507 84.9038027,2.85689082 L84.7700933,3.04973685 C85.3476281,3.5483144 85.8184202,4.51959992 85.8184202,5.41915611 C85.8184202,5.94948271 86.0217933,6.33164711 86.3240441,6.53860383 L81.9161273,6.54095561 L81.9161273,9.37720338 C81.8947787,12.5579871 81.4599422,14.876843 80.7565632,16.3302436 L80.9531947,16.4901647 C82.9307459,14.9532759 83.9981741,12.5685701 84.0217699,9.34310255 L84.0217699,7.46285372 L95.6713445,7.46285372 L95.6713445,6.53860383 L91.09601,6.53860383 Z" id="Fill-1" fill="#231916"></path>
                </g>
            </g>
        </g>
    </g>
</svg>