<?xml version="1.0" encoding="UTF-8"?>
<svg width="28px" height="28px" viewBox="0 0 28 28" version="1.1" xmlns="http://www.w3.org/2000/svg" xmlns:xlink="http://www.w3.org/1999/xlink">
    <title>add-friend-fill</title>
    <g id="页面-1" stroke="none" stroke-width="1" fill="none" fill-rule="evenodd">
        <g id="HC-1" transform="translate(-201, -3200)" fill="#97A1AC" fill-rule="nonzero">
            <g id="编组-4" transform="translate(0, 3188)">
                <g id="Recruitment" transform="translate(175, 4)">
                    <g id="add-friend-fill" transform="translate(26, 8)">
                        <rect id="矩形" opacity="0" x="0" y="0" width="28" height="28"></rect>
                        <path d="M20.5625,17.5 C22.981,17.5 24.9375,19.4565 24.9375,21.875 C24.9375,24.2935 22.981,26.2500004 20.5625,26.2500004 C19.4020355,26.2504645 18.2889673,25.7896774 17.4683949,24.9691051 C16.6478226,24.1485327 16.1870355,23.0354645 16.1874996,21.875 C16.1874996,19.4565 18.144,17.5 20.5625,17.5 L20.5625,17.5 Z M18.97,3.0625 C19.41975,3.0625 19.7837503,3.4265 19.7837503,3.87625 L19.7837503,9.51825 C19.7843895,11.4513239 18.7679796,13.2421729 17.108,14.23275 L19.09425,15.07975 L19.0855,15.12175 C19.0851192,15.495711 18.8937049,15.843557 18.578,16.044 L18.44325,16.1175 C18.4351983,16.1213588 18.4275733,16.1260511 18.4205,16.1315 C15.4278024,17.2476983 13.7947295,20.4757593 14.6685,23.548 L14.7,23.68625 L14.7105,23.84375 C14.7104636,24.3849317 14.3146568,24.8447222 13.7795,24.92525 L13.61675,24.9375 L6.5485,24.9375 C5.341,24.9375 4.361,23.9575 4.361,22.75 L4.361,18.45375 C4.361,17.57875 4.886,16.78425 5.691,16.44125 L10.90425,14.224 C9.25273617,13.2313734 8.24302452,11.4451138 8.24425,9.51825 L8.24425,8.55225 C8.24425,5.52034479 10.7020948,3.0625 13.734,3.0625 L18.97,3.0625 L18.97,3.0625 Z M20.5485,19.19575 C20.1790349,19.196439 19.8626382,19.4605935 19.796,19.824 L19.78375,19.9605 L19.782,21.05425 L18.69,21.05425 C18.3199847,21.055094 18.0033923,21.320148 17.9375,21.68425 L17.9235,21.82075 C17.9235,22.197 18.19475,22.5085 18.55175,22.57325 L18.69,22.5855 L19.782,22.5855 L19.782,23.67925 C19.782,24.0555 20.05325,24.36875 20.412,24.43175 L20.5485,24.44575 C20.9185153,24.444906 21.2351077,24.179852 21.301,23.81575 L21.315,23.67925 L21.31325,22.5855 L22.40875,22.5855 C22.7782151,22.584811 23.0946118,22.3206565 23.16125,21.95725 L23.1735,21.82075 C23.172811,21.4512849 22.9086565,21.1348882 22.54525,21.06825 L22.40875,21.05425 L21.31325,21.05425 L21.31325,19.9605 C21.3127175,19.5915837 21.0494609,19.2753817 20.68675,19.208 L20.5485,19.19575 L20.5485,19.19575 Z" id="形状"></path>
                    </g>
                </g>
            </g>
        </g>
    </g>
</svg>