<?xml version="1.0" encoding="UTF-8"?>
<svg width="28px" height="28px" viewBox="0 0 28 28" version="1.1" xmlns="http://www.w3.org/2000/svg" xmlns:xlink="http://www.w3.org/1999/xlink">
    <title>ic_school</title>
    <g id="页面-1" stroke="none" stroke-width="1" fill="none" fill-rule="evenodd">
        <g id="HC-1" transform="translate(-281, -3200)" fill="#D58E47" fill-rule="nonzero">
            <g id="编组-4" transform="translate(0, 3188)">
                <g id="Training-Info" transform="translate(255, 4)">
                    <g id="ic_school" transform="translate(26, 8)">
                        <rect id="矩形" opacity="0" x="0" y="0" width="28" height="28"></rect>
                        <path d="M7,15.75 L6,21 C8.66666667,23.4 11.3333333,24.5666667 14,24.5 C16.6666667,24.4333333 19.3333333,23.2666667 22,21 L21,15.75 L14,19.75 L7,15.75 Z M14,4 L1.5,11 L14,18 L24.5,12 L24.5,19 C24.5,19.5522847 24.9477153,20 25.5,20 C26.0522847,20 26.5,19.5522847 26.5,19 L26.5,11 L26.5,11 L14,4 Z" id="形状"></path>
                    </g>
                </g>
            </g>
        </g>
    </g>
</svg>