<?xml version="1.0" encoding="UTF-8"?>
<svg width="40px" height="40px" viewBox="0 0 40 40" version="1.1" xmlns="http://www.w3.org/2000/svg" xmlns:xlink="http://www.w3.org/1999/xlink">
    <title>AIGC换脸</title>
    <defs>
        <linearGradient x1="50%" y1="100%" x2="50%" y2="6.16297582e-31%" id="linearGradient-1">
            <stop stop-color="#EED0E1" offset="0%"></stop>
            <stop stop-color="#D9A3BF" offset="100%"></stop>
        </linearGradient>
    </defs>
    <g id="页面-1" stroke="none" stroke-width="1" fill="none" fill-rule="evenodd">
        <g id="DE&amp;I" transform="translate(-67, -418)" fill-rule="nonzero">
            <g id="编组-2备份-5" transform="translate(15, 346)">
                <g id="编组-2" transform="translate(16, 56)">
                    <g id="AIGC换脸" transform="translate(56, 36) scale(-1, 1) translate(-56, -36)translate(36, 16)">
                        <rect id="矩形" fill="#000000" opacity="0" x="0" y="0" width="40" height="40"></rect>
                        <path d="M30.0344268,12.9632943 C30.3441992,12.9937307 30.6567186,12.9802348 30.9627139,12.9232071 C33.0512098,12.5309365 34.3874102,10.2350433 33.947251,7.79444412 C33.5070518,5.34600349 31.4665246,3.68198403 29.3780687,4.07425462 C28.9701553,4.14570748 28.5936075,4.29825493 28.2501457,4.50569226 C26.3935716,2.04156881 23.4334389,0.561502448 20.2885529,0.304376174 L20.2728301,0.304376174 C16.2563073,-0.711126581 12.4071345,0.89708284 11.6792836,3.89818293 C11.670522,3.92170717 11.670522,3.93738999 11.6635607,3.96179438 C10.5992892,5.47406654 9.95077248,7.42657792 9.83923241,9.7469155 C9.51933484,9.68330405 9.2552073,9.51507378 9.11922283,9.30671628 C9.04688981,9.63445526 9.35894597,9.99532021 9.82266943,10.1313047 C9.82266943,10.2507262 9.81478801,10.3631464 9.81478801,10.4825679 C9.81478801,10.7466954 9.82350958,11.0029415 9.8391924,11.2670691 C9.66316072,12.0515303 9.14274707,12.2990948 6.79020369,13.1149616 C6.03794831,13.2431047 6.96623537,14.339582 7.79870518,15.0439088 C8.55092056,15.6837039 7.79870518,16.0759345 7.55026047,16.4603237 C7.29489452,16.8438727 7.51889483,17.412175 7.92680824,17.6196123 C8.43061891,17.8758984 7.55026047,17.8758984 7.55026047,18.6525182 C7.55026047,19.4204564 8.55876197,19.0360272 8.18309436,20.3252192 C7.88672102,21.340682 7.93464965,22.8930814 9.56726346,22.7658184 C11.2068385,22.6368352 12.4637447,21.9970401 13.4722462,22.5095723 C14.6315349,23.1013988 18.888661,30.486848 18.1285642,33.0547501 C17.3763488,35.6234924 14.7282723,34.8555542 13.4713261,40 L31.8587552,40 C31.8587552,40 30.2182999,34.5993081 26.6986265,30.870357 C24.3294401,28.3661463 23.233803,26.0214043 22.9696754,23.3733678 C26.5216347,21.740754 29.290853,17.428698 30.0343868,12.9632943 L30.0344268,12.9632943 Z" id="路径" fill="url(#linearGradient-1)"></path>
                    </g>
                </g>
            </g>
        </g>
    </g>
</svg>