<?xml version="1.0" encoding="UTF-8"?>
<svg width="28px" height="28px" viewBox="0 0 28 28" version="1.1" xmlns="http://www.w3.org/2000/svg" xmlns:xlink="http://www.w3.org/1999/xlink">
    <title>人口库</title>
    <g id="页面-1" stroke="none" stroke-width="1" fill="none" fill-rule="evenodd">
        <g id="HC-1" transform="translate(-41, -3200)" fill="#97A1AC" fill-rule="nonzero">
            <g id="编组-4" transform="translate(0, 3188)">
                <g id="headcount" transform="translate(15, 4)">
                    <g id="人口库" transform="translate(26, 8)">
                        <rect id="矩形" opacity="0" x="0" y="0" width="28" height="28"></rect>
                        <path d="M14.4503762,14.0416961 C14.4503762,14.2888409 14.233591,14.5685048 14.233591,14.5685048 C14.2964696,15.5570841 14.337652,15.6741527 14.3582558,16.2703439 C14.7343834,15.5743014 14.9943397,14.8215155 15.127865,14.0416961 C15.7099561,14.044948 17.1613985,14.1024153 17.1613985,15.6232147 L17.1613985,18.6193122 C17.1613985,20.1997384 16.1077811,20.1997384 16.1077811,20.1997384 L16.1077811,25.7296429 C16.1077811,26.3118414 15.6358159,26.7838066 15.0536174,26.7838066 C14.4714189,26.7838066 13.9994538,26.3118414 13.9994538,25.7296429 C13.9994538,26.3118344 13.5274943,26.7838066 12.9453028,26.7838066 C12.3631113,26.7838066 11.8911519,26.3118344 11.8911519,25.7296429 L11.8911519,20.1997384 C11.8911519,20.1997384 10.8386015,20.1997384 10.8386015,18.6192868 L10.8386015,15.6232147 C10.8386015,14.1024153 12.2900184,14.044948 12.8710425,14.0416961 C13.0040218,14.8228847 13.2636152,15.5771311 13.6395847,16.2746883 C13.6612556,15.6741527 13.7035304,15.5603361 13.7642241,14.5685048 C13.7642241,14.5685048 13.5474389,14.2888409 13.5474389,14.0416961 L14.4503762,14.0416961 Z M19.8702359,11.3306993 C19.8702359,11.5789365 19.6534253,11.8586004 19.6534253,11.8586004 C19.7163039,12.8471797 19.7564192,12.9642483 19.7780901,13.5604141 C20.1542177,12.8643715 20.414174,12.1115856 20.5477247,11.3317917 C21.1297904,11.3350436 22.5801657,11.3935525 22.5801657,12.9133103 L22.5801657,15.9093824 C22.5801657,17.4898085 21.5276153,17.4898085 21.5276153,17.4898085 L21.5276153,23.0197131 C21.5276153,23.6019116 21.0556502,24.0738767 20.4734517,24.0738767 C19.8912532,24.0738767 19.419288,23.6019116 19.419288,23.0197131 C19.419288,23.6019046 18.9473286,24.0738767 18.3651371,24.0738767 C17.7829456,24.0738767 17.3109862,23.6019046 17.3109862,23.0197131 L17.3109862,20.5943114 C17.7348263,20.2051497 18.0643358,19.5807839 18.0643358,18.6192868 L18.0643358,15.6232147 C18.0643358,15.0053526 17.8594658,13.7143461 16.2573687,13.2829351 L16.2573687,12.9122178 C16.2573687,11.3924855 17.7098781,11.3350436 18.2909022,11.3317917 C18.4238762,12.11297 18.6834609,12.8672075 19.059419,13.5647584 C19.0810899,12.9642483 19.1222976,12.8504316 19.1840838,11.8586004 C19.1840838,11.8586004 18.9672732,11.5800035 18.9672732,11.3306993 L19.8702359,11.3306993 Z M9.03054196,11.3306993 C9.03054196,11.5789365 8.81373132,11.8586004 8.81373132,11.8586004 C8.87554293,12.8493392 8.9178177,12.9653154 8.93948861,13.5647584 C9.31480918,12.8670252 9.57401717,12.1128353 9.70693834,11.3317917 C10.287937,11.3339512 11.7404718,11.391393 11.7404718,12.9122178 L11.7404718,13.2829351 C10.1383493,13.7154385 9.93457173,15.0053526 9.93457173,15.6232147 L9.93457173,18.6171274 C9.93457173,19.5786244 10.2641066,20.2029903 10.6879214,20.5921265 L10.6879214,23.0197131 C10.6879214,23.6019046 10.2159619,24.0738768 9.63377046,24.0738768 C9.05157897,24.0738768 8.57961952,23.6019046 8.57961952,23.0197131 C8.57961953,23.3963295 8.37869707,23.7443374 8.0525377,23.9326456 C7.72637833,24.1209538 7.32453341,24.1209538 6.99837404,23.9326456 C6.67221467,23.7443374 6.47129221,23.3963295 6.47129222,23.0197131 L6.47129222,17.4898085 C6.47129222,17.4898085 5.41876723,17.4898085 5.41876723,15.9093824 L5.41876723,12.9122178 C5.41876723,11.3935779 6.86909174,11.3350436 7.45011582,11.3317917 C7.58345489,12.1116507 7.84342145,12.8644579 8.21972502,13.5604141 C8.24142133,12.9642483 8.28260367,12.8471797 8.34438987,11.8586004 C8.34438987,11.8586004 8.12760463,11.5800035 8.12760463,11.3306993 L9.03054196,11.3306993 Z M25.2900702,8.62076942 C25.2900702,8.86791424 25.0732849,9.14757813 25.0732849,9.14757813 C25.1361382,10.1361574 25.1762535,10.253226 25.1979244,10.8494172 C25.5740608,10.1533762 25.8340257,9.40059026 25.967559,8.62076942 C26.5496501,8.62402132 28,8.68255562 28,10.202288 L28,13.1983855 C28,14.7788117 26.9474496,14.7788117 26.9474496,14.7788117 L26.9474496,20.3087162 C26.9474496,20.8909077 26.4754902,21.3628799 25.8932987,21.3628799 C25.3111072,21.3628799 24.8391477,20.8909077 24.8391477,20.3087162 C24.8391477,20.8909147 24.3671826,21.3628799 23.7849841,21.3628799 C23.2027856,21.3628799 22.7308204,20.8909147 22.7308204,20.3087162 L22.7308204,17.8832891 C23.1546606,17.4941529 23.4841701,16.869787 23.4841701,15.90829 L23.4841701,12.9122178 C23.4841701,12.2943558 23.2793,11.0033492 21.677203,10.5730052 L21.677203,10.202288 C21.677203,8.68148859 23.1297124,8.62402132 23.7107365,8.62076942 C23.8437077,9.40195649 24.1032926,10.1562028 24.4792532,10.8537616 C24.5009495,10.253226 24.5421319,10.1394093 24.6039181,9.14757813 C24.6039181,9.14757813 24.3871328,8.86791424 24.3871328,8.62076942 L25.2900702,8.62076942 Z M3.6107077,8.62186185 C3.6107077,8.86900668 3.39389705,9.14867057 3.39389705,9.14867057 C3.45568326,10.1405018 3.496891,10.2554109 3.5185619,10.8548286 C3.89463306,10.1572281 4.15457246,9.40303233 4.2881711,8.62186185 C4.86810274,8.62511376 6.32061213,8.68255562 6.32061213,10.2033804 L6.32061213,10.5740977 C4.71851508,11.0055087 4.51473747,12.2954482 4.51473747,12.9133103 L4.51473747,15.9093824 C4.5158045,16.869787 4.8453394,17.4941529 5.26917957,17.8832891 L5.26917957,20.3087162 C5.26917957,20.8909147 4.79721443,21.3628799 4.21501593,21.3628799 C3.63281742,21.3628799 3.16085228,20.8909147 3.16085228,20.3087162 C3.16085229,20.6853281 2.95993225,21.0333318 2.63377682,21.2216377 C2.30762138,21.4099437 1.9057813,21.4099437 1.57962586,21.2216377 C1.25347042,21.0333318 1.05255039,20.6853281 1.0525504,20.3087162 L1.0525504,14.7788117 C1.0525504,14.7788117 0,14.7788117 0,13.1983601 L0,10.202288 C0,8.68258103 1.44925748,8.62511376 2.03028156,8.62186185 C2.16361795,9.40172964 2.42358458,10.1545456 2.79989076,10.8505097 C2.82156166,10.2543185 2.8627694,10.1372499 2.92455561,9.14867057 C2.92455561,9.14867057 2.70774496,8.86900668 2.70774496,8.62186185 L3.6107077,8.62186185 Z M13.9994538,10.0327396 C14.9659521,10.0327396 15.7494538,10.8162412 15.7494538,11.7827395 C15.7494538,12.7492379 14.9659521,13.5327396 13.9994538,13.5327396 C13.0329555,13.5327396 12.2494538,12.7492379 12.2494538,11.7827395 C12.2494538,10.8162412 13.0329555,10.0327396 13.9994538,10.0327396 Z M8.57961952,7.322797 C9.54611783,7.322797 10.3296195,8.10629869 10.3296195,9.072797 C10.3296195,10.0392953 9.54611783,10.822797 8.57961952,10.822797 C7.6131212,10.822797 6.82961952,10.0392953 6.82961952,9.072797 C6.82961952,8.10629869 7.6131212,7.322797 8.57961952,7.322797 Z M19.4182083,7.32171727 C20.3847066,7.32171727 21.1682083,8.10521896 21.1682083,9.07171727 C21.1682083,10.0382156 20.3847066,10.8217173 19.4182083,10.8217173 C18.45171,10.8217173 17.6682083,10.0382156 17.6682083,9.07171727 C17.6682083,8.10521896 18.45171,7.32171727 19.4182083,7.32171727 Z M13.9994538,5.51692234 C14.9659521,5.51692234 15.7494538,6.30042403 15.7494538,7.26692234 C15.7494538,8.23342065 14.9659521,9.01692234 13.9994538,9.01692234 C13.0329555,9.01692234 12.2494538,8.23342065 12.2494538,7.26692234 C12.2494538,6.30042403 13.0329555,5.51692234 13.9994538,5.51692234 Z M24.8380553,4.61178743 C25.8045536,4.61178743 26.5880553,5.39528912 26.5880553,6.36178743 C26.5880553,7.32828574 25.8045536,8.11178743 24.8380553,8.11178743 C23.871557,8.11178743 23.0880553,7.32828574 23.0880553,6.36178743 C23.0880553,5.39528912 23.871557,4.61178743 24.8380553,4.61178743 Z M3.15869281,4.61178743 C4.12519113,4.61178743 4.90869281,5.39528912 4.90869281,6.36178743 C4.90869281,7.32828574 4.12519113,8.11178743 3.15869281,8.11178743 C2.1921945,8.11178743 1.40869281,7.32828574 1.40869281,6.36178743 C1.40869281,5.39528912 2.1921945,4.61178743 3.15869281,4.61178743 Z M8.57961952,2.80700521 C9.54611783,2.80700521 10.3296195,3.59050691 10.3296195,4.55700521 C10.3296195,5.52350351 9.54611783,6.30700521 8.57961952,6.30700521 C7.6131212,6.30700521 6.82961951,5.52350351 6.82961951,4.55700521 C6.82961951,3.59050691 7.6131212,2.80700521 8.57961952,2.80700521 Z M19.419288,2.80700521 C20.3857864,2.80700521 21.169288,3.59050691 21.169288,4.55700521 C21.169288,5.52350351 20.3857864,6.30700521 19.419288,6.30700521 C18.4527897,6.30700521 17.669288,5.52350351 17.669288,4.55700521 C17.669288,3.59050691 18.4527897,2.80700521 19.419288,2.80700521 Z M13.9994538,1 C14.9659521,1 15.7494538,1.78350169 15.7494538,2.75 C15.7494538,3.71649831 14.9659521,4.5 13.9994538,4.5 C13.0329555,4.5 12.2494538,3.71649831 12.2494538,2.75 C12.2494538,1.78350169 13.0329555,1 13.9994538,1 Z" id="形状"></path>
                    </g>
                </g>
            </g>
        </g>
    </g>
</svg>