<?xml version="1.0" encoding="UTF-8"?>
<svg width="24px" height="24px" viewBox="0 0 24 24" version="1.1" xmlns="http://www.w3.org/2000/svg" xmlns:xlink="http://www.w3.org/1999/xlink">
    <title>案件回访</title>
    <g id="页面-1" stroke="none" stroke-width="1" fill="none" fill-rule="evenodd">
        <g id="HC-2" transform="translate(-31, -1546)" fill="#775200" fill-rule="nonzero">
            <g id="编组-2备份-7" transform="translate(15, 1530)">
                <g id="案件回访" transform="translate(16, 16)">
                    <rect id="矩形" opacity="0" x="0" y="0" width="24" height="24"></rect>
                    <path d="M18.15,18.0375 L21.6375,18.0375 L21.6375,15.54375 L18.15,15.54375 L18.15,18.0375 Z M14.0625,3.825 C14.0625,5.5750523 15.4811977,6.99375 17.23125,6.99375 C18.9813023,6.99375 20.4,5.5750523 20.4,3.825 C20.4,2.0749477 18.9813023,0.65625 17.23125,0.65625 C15.4811977,0.65625 14.0625,2.0749477 14.0625,3.825 Z M2.5125,7.125 C5.08125,3.28125 9.525,2.11875 12.95625,3.0375 C12.95625,3.4125 12.9,3.76875 12.9,4.14375 C9.35625,3.4125 6.3,4.33125 3.91875,7.14375 C2.26875,9.0375 1.66875,11.2875 2.025,13.8 C2.4,16.6125 3.8625,18.75 6.3,20.2125 C8.68125,21.61875 11.25,21.73125 13.875,20.75625 C13.93125,21.13125 13.93125,21.4875 14.00625,21.8625 C11.0625,22.9875 6.6,22.6875 3.43125,19.275 C0.375,15.975 -0.05625,10.96875 2.5125,7.125 Z M10.14375,4.9125 L11.25,4.9125 L11.25,10.8375 C11.25,10.96875 11.30625,11.08125 11.4375,11.1375 C12.1125,11.4375 12.46875,12.16875 12.35625,12.9 C12.225,13.575 11.68125,14.11875 11.00625,14.175 C10.275,14.30625 9.6,13.93125 9.3,13.25625 C9.24375,13.125 9.16875,13.06875 9,13.06875 L5.325,13.06875 L5.325,12 L9.05625,12 C9.24375,12 9.3,11.94375 9.35625,11.8125 C9.4875,11.5125 9.73125,11.26875 10.0875,11.08125 C10.275,11.025 10.275,10.89375 10.275,10.78125 L10.275,5.175 C10.14375,5.1 10.14375,4.9875 10.14375,4.9125 Z M22.725,18.0375 C22.725,18.0375 22.78125,19.14375 21.5625,19.14375 L19.66875,19.14375 L19.48125,21.39375 C19.48125,21.39375 19.48125,22.36875 18.375,22.425 L16.25625,22.425 C16.25625,22.425 15.28125,22.48125 15.15,21.39375 L14.775,16.3875 L14.15625,16.3875 C14.15625,16.3875 12.88125,16.51875 12.99375,14.98125 L14.025,9.1125 C14.025,9.1125 14.08125,8.19375 15.05625,8.1375 L19.63125,8.1375 C19.63125,8.1375 20.55,8.1375 20.6625,9.16875 L21.58125,14.23125 L21.45,14.2875 L21.45,14.4375 C21.45,14.4375 22.425,14.38125 22.66875,15.35625 C22.725,15.35625 22.725,18.0375 22.725,18.0375 Z" id="形状"></path>
                </g>
            </g>
        </g>
    </g>
</svg>