<?xml version="1.0" encoding="UTF-8"?>
<svg width="24px" height="24px" viewBox="0 0 24 24" version="1.1" xmlns="http://www.w3.org/2000/svg" xmlns:xlink="http://www.w3.org/1999/xlink">
    <title>问卷</title>
    <g id="页面-1" stroke="none" stroke-width="1" fill="none" fill-rule="evenodd">
        <g id="HC-3" transform="translate(-31, -1850)" fill="#775200" fill-rule="nonzero">
            <g id="编组-2备份-8" transform="translate(15, 1834)">
                <g id="问卷" transform="translate(16, 16)">
                    <rect id="矩形" opacity="0" x="0" y="0" width="24" height="24"></rect>
                    <path d="M12,0 C18.6274922,0 24,5.37250781 24,12 C24,18.6274922 18.6274922,24 12,24 C5.37250781,24 0,18.6274922 0,12 C0,5.37250781 5.37250781,0 12,0 Z M12,1.5 C6.201,1.5 1.5,6.201 1.5,12 C1.5,17.799 6.201,22.5 12,22.5 C17.799,22.5 22.5,17.799 22.5,12 C22.5,6.201 17.799,1.5 12,1.5 Z M16.7500078,17.5000078 C17.1642214,17.5000078 17.5000078,17.8357943 17.5000078,18.2500078 C17.5000078,18.6642214 17.1642214,19.0000078 16.7500078,19.0000078 L7.24999219,19.0000078 C6.83577863,19.0000078 6.49999219,18.6642214 6.49999219,18.2500078 C6.49999219,17.8357943 6.83577863,17.5000078 7.24999219,17.5000078 L16.7500078,17.5000078 Z M16.7500078,15 C17.1642214,15 17.5000078,15.3357864 17.5000078,15.75 C17.5000078,16.1642136 17.1642214,16.5 16.7500078,16.5 L7.24999219,16.5 C6.83577863,16.5 6.49999219,16.1642136 6.49999219,15.75 C6.49999219,15.3357864 6.83577863,15 7.24999219,15 L16.7500078,15 Z M11.8999922,11.508 C12.4639922,11.508 12.9199922,11.964 12.9199922,12.528 C12.9199922,13.092 12.4639922,13.5480005 11.8999922,13.5480005 C11.6293894,13.5482678 11.3697928,13.4408898 11.1784476,13.2495446 C10.9871024,13.0581994 10.8797244,12.7986028 10.8799917,12.528 C10.8799917,11.964 11.3359922,11.508 11.8999922,11.508 L11.8999922,11.508 Z M11.8999922,4.884 C12.6199922,4.884 13.1599922,5.124 13.5199922,5.484 C13.9879922,5.952 14.1439922,6.552 14.1439922,7.368 C14.1439922,8.076 13.9999922,8.556 13.6999922,8.904 L12.9919922,9.744 C12.8119922,9.96 12.7039922,10.2 12.7039922,10.464 L12.7039922,11.016 L11.0960156,11.016 L11.0960156,10.284 C11.0960156,9.888 11.2760156,9.504 11.5160156,9.228 L12.2240156,8.388 C12.4880156,8.076 12.5360156,7.776 12.5360156,7.32 C12.5360156,7.032 12.5360156,6.732 12.3560156,6.528 C12.2360156,6.396 12.1040156,6.324 11.9120156,6.324 C11.7320156,6.324 11.6000156,6.396 11.4800156,6.528 C11.2880156,6.744 11.2880156,7.092 11.2880156,7.416 L9.68001562,7.416 C9.68001562,6.636 9.84801563,5.928 10.3040156,5.508 C10.6640156,5.172 11.1560156,4.884 11.9000156,4.884 L11.8999922,4.884 Z" id="形状"></path>
                </g>
            </g>
        </g>
    </g>
</svg>