<?xml version="1.0" encoding="UTF-8"?>
<svg width="24px" height="24px" viewBox="0 0 24 24" version="1.1" xmlns="http://www.w3.org/2000/svg" xmlns:xlink="http://www.w3.org/1999/xlink">
    <title>添加轨迹回溯</title>
    <g id="页面-1" stroke="none" stroke-width="1" fill="none" fill-rule="evenodd">
        <g id="Recruitment" transform="translate(-31, -1266)" fill="#775200" fill-rule="nonzero">
            <g id="编组-2" transform="translate(15, 1250)">
                <g id="添加轨迹回溯" transform="translate(16, 16)">
                    <rect id="矩形" opacity="0" x="0" y="0" width="24" height="24"></rect>
                    <path d="M14.6175,20.727 L14.4,20.727 C13.6196893,20.9499025 12.8115011,21.0600181 12,21.054 C9.73319437,21.0558142 7.54998979,20.1981841 5.8905,18.654 L6.9825,17.5635 L2.946,16.9095 L3.6,20.9445 L4.6905,19.854 C6.64889901,21.6704978 9.21936973,22.6831561 11.8905,22.6905 C12.873,22.6905 13.746,22.5825 14.6175,22.3635 C14.946,22.254 15.273,21.9285 15.273,21.6 C15.3825,21.054 15.054,20.727 14.6175,20.727 M3.273,14.4 L3.273,14.1825 C3.05783187,13.4749113 2.94765831,12.7395785 2.946,12 C2.946,9.7095 3.8175,7.635 5.2365,6 L6.327,7.0905 L6.9825,3.0555 L2.946,3.7095 L4.146,4.9095 C2.4,6.7635 1.4175,9.273 1.4175,12 C1.4175,12.873 1.527,13.854 1.746,14.6175 C1.746,14.946 2.073,15.273 2.5095,15.273 C2.9445,15.273 3.273,14.946 3.273,14.4 M22.6905,12 C22.6905,11.0175 22.5825,10.146 22.3635,9.273 C22.2485132,8.94902465 21.9437518,8.73108135 21.6,8.727 C21.165,8.727 20.835,9.054 20.835,9.492 L20.835,9.7095 C21.054,10.473 21.165,11.2365 21.165,12 C21.1549896,14.244842 20.3419752,16.4119937 18.873,18.1095 L17.7825,17.0175 L17.127,21.054 L21.1635,20.4 L19.9635,19.2 C21.6,17.235 22.6905,14.727 22.6905,12 M20.946,6.9825 L20.2905,2.946 L19.2,4.0365 C17.346,2.2905 14.835,1.3095 12.1095,1.3095 C11.2365,1.3095 10.254,1.4175 9.3825,1.6365 L9.273,1.6365 C8.94902465,1.75148678 8.73108135,2.05624816 8.727,2.4 C8.727,2.835 9.054,3.273 9.492,3.273 L9.7095,3.273 C10.4539994,3.0576468 11.2249813,2.94757865 12,2.946 C14.2905,2.946 16.365,3.8175 18,5.2365 L16.9095,6.327 L20.9445,6.9825 L20.946,6.9825 Z M8.25,11.25 L15.75,11.25 C16.25,11.25 16.5,11.5 16.5,12 C16.5,12.5 16.25,12.75 15.75,12.75 L8.25,12.75 C7.75,12.75 7.5,12.5 7.5,12 C7.5,11.5 7.75,11.25 8.25,11.25 Z" id="形状"></path>
                    <path d="M11.25,15.75 L11.25,8.25 C11.25,7.75 11.5,7.5 12,7.5 C12.5,7.5 12.75,7.75 12.75,8.25 L12.75,15.75 C12.75,16.25 12.5,16.5 12,16.5 C11.5,16.5 11.25,16.25 11.25,15.75 Z" id="路径"></path>
                </g>
            </g>
        </g>
    </g>
</svg>