<?xml version="1.0" encoding="UTF-8"?>
<svg width="24px" height="24px" viewBox="0 0 24 24" version="1.1" xmlns="http://www.w3.org/2000/svg" xmlns:xlink="http://www.w3.org/1999/xlink">
    <title>行李箱</title>
    <g id="页面-1" stroke="none" stroke-width="1" fill="none" fill-rule="evenodd">
        <g id="DE&amp;I-2" transform="translate(-31, -361)" fill="#775200" fill-rule="nonzero">
            <g id="编组-2备份-2" transform="translate(15, 346)">
                <g id="行李箱" transform="translate(16, 15)">
                    <rect id="矩形" opacity="0" x="0" y="0" width="24" height="24"></rect>
                    <path d="M16.5,4.125 L16.5,3.375 C16.5,2.1375 15.4875,1.125 14.25,1.125 L9.75,1.125 C8.5125,1.125 7.5,2.1375 7.5,3.375 L7.5,4.125 C5.4375,4.125 3.75,5.8125 3.75,7.875 L3.75,17.625 C3.75,19.6875 5.4375,21.375 7.5,21.375 L8.25,21.375 L8.25,22.125 C8.25,22.5375 8.5875,22.875 9,22.875 C9.4125,22.875 9.75,22.5375 9.75,22.125 L9.75,21.375 L14.25,21.375 L14.25,22.125 C14.25,22.5375 14.5875,22.875 15,22.875 C15.4125,22.875 15.75,22.5375 15.75,22.125 L15.75,21.375 L16.5,21.375 C18.5625,21.375 20.25,19.6875 20.25,17.625 L20.25,7.875 C20.25,5.8125 18.5625,4.125 16.5,4.125 Z M9,3.375 C9,2.9625 9.3375,2.625 9.75,2.625 L14.25,2.625 C14.6625,2.625 15,2.9625 15,3.375 L15,4.125 L9,4.125 L9,3.375 Z M18.75,17.625 C18.75,18.8625 17.7375,19.875 16.5,19.875 L7.5,19.875 C6.2625,19.875 5.25,18.8625 5.25,17.625 L5.25,7.875 C5.25,6.6375 6.2625,5.625 7.5,5.625 L16.5,5.625 C17.7375,5.625 18.75,6.6375 18.75,7.875 L18.75,17.625 Z" id="形状"></path>
                    <path d="M9.375,7.875 C8.9625,7.875 8.625,8.2125 8.625,8.625 L8.625,16.875 C8.625,17.2875 8.9625,17.625 9.375,17.625 C9.7875,17.625 10.125,17.2875 10.125,16.875 L10.125,8.625 C10.125,8.2125 9.7875,7.875 9.375,7.875 Z M14.625,7.875 C14.2125,7.875 13.875,8.2125 13.875,8.625 L13.875,16.875 C13.875,17.2875 14.2125,17.625 14.625,17.625 C15.0375,17.625 15.375,17.2875 15.375,16.875 L15.375,8.625 C15.375,8.2125 15.0375,7.875 14.625,7.875 Z" id="形状"></path>
                </g>
            </g>
        </g>
    </g>
</svg>