<?xml version="1.0" encoding="UTF-8"?>
<svg width="40px" height="40px" viewBox="0 0 40 40" version="1.1" xmlns="http://www.w3.org/2000/svg" xmlns:xlink="http://www.w3.org/1999/xlink">
    <title>青年人</title>
    <defs>
        <linearGradient x1="50%" y1="100%" x2="50%" y2="6.16297582e-31%" id="linearGradient-1">
            <stop stop-color="#AEC8F6" offset="0%"></stop>
            <stop stop-color="#7697E9" offset="100%"></stop>
        </linearGradient>
    </defs>
    <g id="页面-1" stroke="none" stroke-width="1" fill="none" fill-rule="evenodd">
        <g id="DE&amp;I" transform="translate(-195, -418)" fill-rule="nonzero">
            <g id="编组-2备份-5" transform="translate(15, 346)">
                <g id="编组-3" transform="translate(144, 56)">
                    <g id="青年人" transform="translate(36, 16)">
                        <rect id="矩形" fill="#000000" opacity="0" x="0" y="0" width="40" height="40"></rect>
                        <path d="M10.8220313,28.8053906 C11.293125,28.2221094 11.2482813,28.2669531 11.719375,27.66125 C12.1232031,27.1676953 12.4372656,26.6292578 12.7737891,26.0908594 C12.9532422,25.8216406 13.1103125,25.5524219 13.2673438,25.2607813 C13.6262891,24.6101953 13.8730469,23.9371875 13.9179297,23.196875 C13.9627734,22.3667969 13.7160156,21.6264844 13.2673438,20.9085938 C12.6840625,19.9887891 12.1680469,19.0016797 11.6744922,18.0370313 C11.3155469,17.3415625 11.0014844,16.6460938 10.6649609,15.9506641 C10.6425391,15.9282031 10.6425391,15.8833594 10.6425391,15.8608984 C10.5303906,14.47 9.99195313,13.1239453 10.2387109,11.7105859 C10.3733203,10.8580859 10.3957422,9.98316406 10.6425391,9.17554688 C10.8893359,8.36792969 10.9790625,7.49300781 11.6969531,6.86484375 C11.8091016,6.75265625 11.9661719,6.68535156 12.1007422,6.595625 C12.4148047,6.41617188 12.6616016,6.23667969 12.8410938,5.87773438 C13.2224609,5.09253906 13.7384375,4.32976563 14.5909375,3.88109375 C15.7575,3.27539063 16.9465234,2.759375 18.2925781,2.60234375 C18.6515234,2.5575 19.0553125,2.5575 19.4142578,2.64722656 C20.1546094,2.78183594 20.8500391,2.8715625 21.4333594,2.26585938 C21.5903906,2.10882813 21.9717578,2.10882813 22.2409766,2.10882813 C22.4877344,2.10882813 22.7120703,2.15367188 22.779375,1.83960938 C22.8466797,1.54796875 23.0934375,1.54796875 23.3178125,1.66011719 C23.8786719,1.92933594 24.2824609,1.86203125 24.6189844,1.30117188 C24.6862891,1.18902344 24.9779688,1.18902344 25.1798438,1.18902344 C25.3144531,1.18902344 25.4266016,1.34605469 25.6060938,1.45820313 C25.8304297,0.964648438 26.0323438,0.516015625 26.2791406,0 C26.8175391,0.560859375 27.3335156,1.07683594 27.8719141,1.61523438 C27.894375,1.39089844 27.9168359,1.1665625 27.9616797,0.919804688 C27.9841016,0.830078125 28.0289844,0.717890625 28.0962891,0.69546875 C28.1635938,0.673007813 28.2981641,0.762773438 28.320625,0.807617188 C28.5000781,1.12167969 28.6571094,1.45820313 28.8366016,1.79472656 C28.9263281,1.97421875 29.0609375,2.10878906 29.2179688,2.31074219 C29.6217969,1.99664063 29.9807422,1.705 30.3621094,1.39089844 C31.2146094,2.31070313 32.3811719,3.00613281 32.8298828,4.30734375 C33.0542188,4.95792969 33.2785547,5.58609375 33.1663672,6.23667969 C32.9644531,7.49300781 32.4484766,8.56984375 31.0800391,9.10824219 C30.65375,9.26527344 30.8332422,9.71398438 30.9678516,10.0280469 C31.1473047,10.4767188 31.4838281,10.9029688 31.5959766,11.3741016 C31.8203516,12.3836328 32.2017188,13.3931641 32.0446875,14.4475391 C32.0222266,14.5597266 32.0446875,14.6943359 31.9773828,14.7840625 C31.2819141,15.9506641 31.8427734,16.8480078 32.6279688,17.7229297 C33.1215234,18.2837891 33.6375,18.8446484 34.0861719,19.4279297 C34.4675391,19.9439453 34.3105078,20.4150391 33.7048047,20.7066797 C33.3682813,20.8637109 33.0317578,21.0432031 32.7176953,21.2450781 C32.4484766,21.4245703 32.4484766,21.6713281 32.6055078,21.9405469 C32.8074609,22.2770703 32.8298828,22.5686719 32.5157813,22.9052344 C32.3811719,23.0398047 32.3811719,23.3763281 32.4260547,23.5782422 C32.5382422,24.0942578 32.5157813,24.5204688 32.1568359,24.9916016 C31.9549219,25.2607813 31.9100781,25.7319141 31.9773828,26.0908594 C32.0895313,26.8984766 32.2241406,27.66125 31.3716406,28.1772266 C30.5191406,28.6932422 29.5769141,28.7829688 28.5898047,28.5362109 C28.0065234,28.3791406 27.3783984,28.3118359 26.7726563,28.3118359 C26.5707422,28.3118359 26.2566406,28.6483594 26.2117969,28.8951172 C26.0547656,29.5457031 25.5836719,29.9270703 25.1125391,30.3757813 C24.6638672,30.7795703 24.2600391,31.273125 23.9908203,31.7891016 C23.6094531,32.551875 24.0805859,35.0196484 24.5516797,35.6926172 L10.8219922,28.8053906 L10.8220313,28.8053906 Z M9.09460937,29.1867578 C9.09460937,29.1867578 4.6975,36.5676172 5.93136719,38.0930859 C7.3671875,39.8429688 24.1030078,40 24.1030078,40 L9.09460937,29.1867578 Z M28.1860156,39.1699609 L30.9678516,38.4071875 C30.9678516,38.4071875 30.3396875,33.1351563 25.0003516,32.8435156 L28.1860156,39.1699609 L28.1860156,39.1699609 Z M24.058125,36.6573047 C24.058125,36.6573047 23.6543359,37.6668359 23.7664844,38.0257813 C23.9459766,38.5193359 25.1349609,38.9007422 25.1349609,38.9007422 L26.1669531,38.4744922 C26.1669531,38.4744922 26.84,37.4873828 26.6605078,37.0387109 C26.4810156,36.5900391 25.3144141,36.1189063 25.3144141,36.1189063 L24.0581641,36.6573047 L24.058125,36.6573047 Z M25.3144531,39.2148047 L26.4137109,38.7437109 L27.4905469,39.3269922 L25.3144531,39.8878125 L25.3144531,39.2148437 L25.3144531,39.2148047 Z" id="形状" fill="url(#linearGradient-1)"></path>
                    </g>
                </g>
            </g>
        </g>
    </g>
</svg>