<?xml version="1.0" encoding="UTF-8"?>
<svg width="64px" height="40px" viewBox="0 0 64 40" version="1.1" xmlns="http://www.w3.org/2000/svg" xmlns:xlink="http://www.w3.org/1999/xlink">
    <title>彩虹</title>
    <g id="页面-1" stroke="none" stroke-width="1" fill="none" fill-rule="evenodd">
        <g id="DE&amp;I" transform="translate(-311, -418)" fill-rule="nonzero">
            <g id="编组-2备份-5" transform="translate(15, 346)">
                <g id="编组-3备份" transform="translate(272, 56)">
                    <g id="彩虹" transform="translate(24, 16)">
                        <rect id="矩形" fill="#000000" opacity="0" x="8.7140188e-07" y="8.71401824e-07" width="63.9843736" height="39.9999991"></rect>
                        <path d="M44.9290624,16.8185161 L39.5145703,13.4428521 L32.7931252,12.1881647 C32.7931252,12.1881647 27.6250784,11.6878131 27.2143362,12.1881647 C26.803594,12.6885162 17.8790239,18.1627739 17.8790239,18.1627739 L13.0470318,24.8842581 L12.5466412,29.6340627 L11.8745319,39.9850781 L16.7961333,39.9850781 L18.2076177,27.9835549 L21.1276957,21.8894535 C21.1276957,21.8894535 25.2950003,18.8050786 25.5414456,18.8050786 C25.7878909,18.8050786 32.0313674,17.3860942 32.0313674,17.3860942 L36.2957423,18.4690239 L42.7931249,21.7251566 L45.713203,25.9671487 L47.4607811,37.4682422 L47.1247264,39.9850781 L51.7923826,39.9850781 L51.7923826,27.2367972 L44.9290624,16.8185161 Z" id="路径" fill="#5D9CEC"></path>
                        <path d="M54.7647653,20.9111332 L47.9985155,12.5242193 L42.0239062,8.73781318 L32.7184377,7.10972728 L27.8491409,7.10972728 L22.0164457,8.96187568 L13.9283209,14.189649 L9.22332098,21.6579301 L7.34875071,33.3233205 L6.43015698,40 L11.0978522,40 L11.9492194,34.3539845 L12.1957037,27.1844534 L13.8610943,23.8088285 L18.0283989,17.7296489 L21.0679692,15.227774 L24.8021097,13.3980865 L30.7169533,12.5168365 C30.7169533,12.5168365 35.8850001,12.725899 36.2583985,12.8155475 C36.6317969,12.9051959 42.7184374,14.9813287 42.7184374,14.9813287 L48.9693748,20.6945317 L50.552656,25.0186722 L51.6355466,27.7296487 L51.6355466,34.5183204 L51.7998435,39.9925391 L56.6317965,39.9925391 L56.6317965,28.5287502 L54.7647653,20.9111332 Z" id="路径" fill="#A0D468"></path>
                        <polygon id="路径" fill="#FC6E51" points="62.3450386 29.4025393 59.0963277 16.7363677 52.1807029 8.56609443 43.2636718 2.98730549 32.7632814 1.40402428 26.5945315 1.40402428 20.0149614 3.73410235 13.5997271 7.65496164 7.43093821 14.1523443 3.51753986 20.7020317 1.43390709 30.9036721 1.43390709 40 6.43015698 40 6.84839916 26.3181644 8.59597725 21.0679692 12.8453912 14.8170318 18.0955864 10.6646881 25.0933597 7.65496164 33.1814845 7.07246165 40.1792187 8.31964913 49.0141795 13.4055084 55.8476559 23.1516019 57.5130856 40 62.7632417 40 62.3450386 29.4025393"></polygon>
                        <path d="M32.0014845,15.9970318 C23.1624783,15.9970318 15.9970318,23.1624783 15.9970318,32.0014845 L15.9970318,40 L18.6706645,40 L18.6706645,32.0014845 C18.6625025,27.2333988 21.2015597,22.8240096 25.3294882,20.4376074 C29.4574166,18.0512053 34.5455915,18.0512053 38.67352,20.4376074 C42.8014485,22.8240096 45.3405056,27.2333988 45.3323436,32.0014845 L45.3323436,40 L47.9985172,40 L47.9985172,32.0014845 C48.0004845,27.7575224 46.3159571,23.686708 43.3157184,20.6850774 C40.3154797,17.6834467 36.2454472,15.9970318 32.0014845,15.9970318 L32.0014845,15.9970318 Z" id="路径" fill="#AC92EB"></path>
                        <path d="M32.0014845,10.6646881 C20.2175062,10.6646881 10.6646881,20.2175062 10.6646881,32.0014845 L10.6646881,40 L13.33086,40 L13.33086,32.0014845 C13.32993,27.0493608 15.2964023,22.2997238 18.7976176,18.7975786 C24.1381534,13.461689 32.1664956,11.8670303 39.1408873,14.7568226 C46.1152791,17.6466149 50.6630736,24.4521113 50.6646881,32.0014845 L50.6646881,40 L53.3308591,40 L53.3308591,32.0014845 C53.3308591,20.220404 43.7825644,10.6688077 32.0014845,10.6646881 Z" id="路径" fill="#4FC2E9"></path>
                        <path d="M32.0014845,5.3323403 C17.2725252,5.3323403 5.33234451,17.2725252 5.33234451,32.0014845 L5.33234451,40 L7.99851632,40 L7.99851632,32.0014845 C7.99841686,23.956097 12.0290489,16.4457206 18.733594,11.9985489 C25.438139,7.55137717 33.9248214,6.75893117 41.3367968,9.88796941 C50.2373604,13.6288787 56.0227727,22.3467284 56.0119528,32.0014845 L56.0119528,40 L58.6855855,40 L58.6855855,32.0014845 C58.6855855,24.9257959 55.8737567,18.1401275 50.8690865,13.1382633 C45.8644163,8.13639909 39.0771721,5.32837516 32.0014845,5.3323403 L32.0014845,5.3323403 Z" id="路径" fill="#FFCE54"></path>
                        <path d="M32.0014845,0 C23.5135567,-0.00197872604 15.3727038,3.36896077 9.3708323,9.3708323 C3.36896077,15.3727038 -0.00197872604,23.5135567 0,32.0014845 L0,40 L2.66617269,40 L2.66617269,32.0014845 C2.67171532,22.1688795 7.60048434,12.9922643 15.7948534,7.55788591 C23.9892224,2.12350755 34.3604303,1.15341559 43.4204687,4.97386795 C54.2938984,9.55011637 61.3594106,20.2043114 61.3442964,32.0014845 L61.3442964,40 L64.0029682,40 L64.0029682,32.0014845 C64.0029682,14.3275531 49.675416,0 32.0014845,0 Z" id="路径" fill="#ED5564"></path>
                    </g>
                </g>
            </g>
        </g>
    </g>
</svg>