<?xml version="1.0" encoding="UTF-8"?>
<svg width="24px" height="24px" viewBox="0 0 24 24" version="1.1" xmlns="http://www.w3.org/2000/svg" xmlns:xlink="http://www.w3.org/1999/xlink">
    <title>leaf</title>
    <g id="页面-1" stroke="none" stroke-width="1" fill="none" fill-rule="evenodd">
        <g id="HC-2" transform="translate(-31, -1170)" fill="#775200" fill-rule="nonzero">
            <g id="编组-2备份-6" transform="translate(15, 1154)">
                <g id="leaf" transform="translate(16, 16)">
                    <rect id="矩形" opacity="0" x="0" y="0" width="24" height="24"></rect>
                    <path d="M3.24559484,20.7544042 C2.91813505,20.4269636 2.91813505,19.9357835 3.24559484,19.6083237 L6.19267538,16.6612431 C4.71913511,12.9773925 5.57870027,8.72049196 8.40298578,5.89620644 C11.3500663,2.9491259 15.8934822,2.17143049 19.6591834,3.93148608 C19.8229229,4.01335583 19.9866432,4.13615085 20.0685129,4.34081561 C21.8285685,8.14746131 21.0508731,12.6908771 18.1037926,15.6379577 C16.1799975,17.5208083 13.601302,18.5440938 11.0226065,18.5440938 C9.79465631,18.5440938 8.52578081,18.2985037 7.33875586,17.8482681 L4.39167532,20.7953486 C4.22795502,20.9181436 4.02329025,21 3.81862549,21 C3.61396072,21 3.40931514,20.9181436 3.24559484,20.7544042 Z M9.54906627,7.08323139 C7.37968114,9.25261651 6.60198573,12.4862124 7.46155088,15.3923676 L11.5956564,11.2582622 L11.5956564,7.49254173 C11.5956564,7.04230611 11.9640414,6.67392104 12.4142771,6.67392104 C12.8645127,6.67392104 13.2329169,7.04230611 13.2329169,7.49254173 L13.2329169,9.62100158 L15.3204323,7.5334862 C15.6478921,7.20602641 16.1390722,7.20602641 16.4665128,7.5334862 C16.7939726,7.8609268 16.7939726,8.35210689 16.4665128,8.67956668 L12.3324265,12.8136722 L14.0515568,12.8136722 C14.5017924,12.8136722 14.8701775,13.1820572 14.8701775,13.6322929 C14.8701775,14.0825285 14.5017924,14.4509327 14.0515568,14.4509327 L10.6951467,14.4509327 L8.60763136,16.5384481 C11.5137866,17.3980133 14.7473825,16.6612431 16.9167676,14.4509327 C19.3317428,12.0359576 20.0275685,8.39305136 18.6768232,5.28223133 C15.6069476,3.97243055 11.923097,4.66825622 9.54906627,7.08323139 Z" id="形状"></path>
                </g>
            </g>
        </g>
    </g>
</svg>