<?xml version="1.0" encoding="UTF-8"?>
<svg width="28px" height="28px" viewBox="0 0 28 28" version="1.1" xmlns="http://www.w3.org/2000/svg" xmlns:xlink="http://www.w3.org/1999/xlink">
    <title>09-排班管理</title>
    <g id="页面-1" stroke="none" stroke-width="1" fill="none" fill-rule="evenodd">
        <g id="HC-1" transform="translate(-361, -3200)" fill="#97A1AC">
            <g id="编组-4" transform="translate(0, 3188)">
                <g id="Attendance" transform="translate(335, 4)">
                    <g id="09-排班管理" transform="translate(26, 8)">
                        <rect id="矩形" fill-rule="nonzero" opacity="0" x="0" y="0" width="28" height="28"></rect>
                        <path d="M8,3.5 C8.13807119,3.5 8.26307119,3.55596441 8.35355339,3.64644661 C8.44403559,3.73692881 8.5,3.86192881 8.5,4 L8.5,5.5 L19.5,5.5 L19.5,4 C19.5,3.86192881 19.5559644,3.73692881 19.6464466,3.64644661 C20.1380712,3.5 20.2630712,3.55596441 20.3535534,3.64644661 C20.4440356,3.73692881 20.5,3.86192881 20.5,4 L20.5,5.50412934 C22.240327,5.47755834 22.7365148,5.57797077 23.2294691,5.84160565 C23.629935,6.05577712 23.9442229,6.37006505 24.1583943,6.77053087 C24.3931784,7.2095388 24.5,7.6501483 24.5,8.8458278 L24.5,20.1541722 C24.5,21.3498517 24.3931784,21.7904612 24.1583943,22.2294691 C23.9442229,22.629935 23.629935,22.9442229 23.2294691,23.1583943 C22.7904612,23.3931784 22.3498517,23.5 21.1541722,23.5 L6.8458278,23.5 C5.6501483,23.5 5.2095388,23.3931784 4.77053087,23.1583943 C4.37006505,22.9442229 4.05577712,22.629935 3.84160565,22.2294691 C3.60682165,21.7904612 3.5,21.3498517 3.5,20.1541722 L3.5,8.8458278 C3.5,7.6501483 3.60682165,7.2095388 3.84160565,6.77053087 C4.05577712,6.37006505 4.37006505,6.05577712 4.77053087,5.84160565 C5.25838728,5.58069719 5.74822152,5.47781218 7.27404185,5.50393857 L7.50099101,4.03188876 C7.49164414,3.88124459 7.5490465,3.74384672 7.64644661,3.64644661 C7.73692881,3.55596441 7.86192881,3.5 8,3.5 Z M7.00000649,17.5 L6.00000649,17.5 C5.58579293,17.5 5.21079293,17.6678932 4.93934632,17.9393398 C4.66789971,18.2107864 4.50000649,18.5857864 4.50000649,19 C4.50000649,19.4142136 4.66789971,19.7892136 4.93934632,20.0606602 C5.21079293,20.3321068 5.58579293,20.5 6.00000649,20.5 L7.00000649,20.5 C7.41422005,20.5 7.78922005,20.3321068 8.06066666,20.0606602 C8.33211327,19.7892136 8.50000649,19.4142136 8.50000649,19 C8.50000649,18.5857864 8.33211327,18.2107864 8.06066666,17.9393398 C7.78922005,17.6678932 7.41422005,17.5 7.00000649,17.5 Z M12.0000065,17.5 L11.0000065,17.5 C10.5857929,17.5 10.2107929,17.6678932 9.93934632,17.9393398 C9.66789971,18.2107864 9.50000649,18.5857864 9.50000649,19 C9.50000649,19.4142136 9.66789971,19.7892136 9.93934632,20.0606602 C10.2107929,20.3321068 10.5857929,20.5 11.0000065,20.5 L12.0000065,20.5 C12.4142201,20.5 12.7892201,20.3321068 13.0606667,20.0606602 C13.3321133,19.7892136 13.5000065,19.4142136 13.5000065,19 C13.5000065,18.5857864 13.3321133,18.2107864 13.0606667,17.9393398 C12.7892201,17.6678932 12.4142201,17.5 12.0000065,17.5 Z M7.00000649,13.5 L6.00000649,13.5 C5.58579293,13.5 5.21079293,13.6678932 4.93934632,13.9393398 C4.66789971,14.2107864 4.50000649,14.5857864 4.50000649,15 C4.50000649,15.4142136 4.66789971,15.7892136 4.93934632,16.0606602 C5.21079293,16.3321068 5.58579293,16.5 6.00000649,16.5 L7.00000649,16.5 C7.41422005,16.5 7.78922005,16.3321068 8.06066666,16.0606602 C8.33211327,15.7892136 8.50000649,15.4142136 8.50000649,15 C8.50000649,14.5857864 8.33211327,14.2107864 8.06066666,13.9393398 C7.78922005,13.6678932 7.41422005,13.5 7.00000649,13.5 Z M12.0000065,13.5 L11.0000065,13.5 C10.5857929,13.5 10.2107929,13.6678932 9.93934632,13.9393398 C9.66789971,14.2107864 9.50000649,14.5857864 9.50000649,15 C9.50000649,15.4142136 9.66789971,15.7892136 9.93934632,16.0606602 C10.2107929,16.3321068 10.5857929,16.5 11.0000065,16.5 L12.0000065,16.5 C12.4142201,16.5 12.7892201,16.3321068 13.0606667,16.0606602 C13.3321133,15.7892136 13.5000065,15.4142136 13.5000065,15 C13.5000065,14.5857864 13.3321133,14.2107864 13.0606667,13.9393398 C12.7892201,13.6678932 12.4142201,13.5 12.0000065,13.5 Z M17.0000065,13.5 L16.0000065,13.5 C15.5857929,13.5 15.2107929,13.6678932 14.9393463,13.9393398 C14.6678997,14.2107864 14.5000065,14.5857864 14.5000065,15 C14.5000065,15.4142136 14.6678997,15.7892136 14.9393463,16.0606602 C15.2107929,16.3321068 15.5857929,16.5 16.0000065,16.5 L17.0000065,16.5 C17.4142201,16.5 17.7892201,16.3321068 18.0606667,16.0606602 C18.3321133,15.7892136 18.5000065,15.4142136 18.5000065,15 C18.5000065,14.5857864 18.3321133,14.2107864 18.0606667,13.9393398 C17.7892201,13.6678932 17.4142201,13.5 17.0000065,13.5 Z M22.0000065,13.5 L21.0000065,13.5 C20.5857929,13.5 20.2107929,13.6678932 19.9393463,13.9393398 C19.6678997,14.2107864 19.5000065,14.5857864 19.5000065,15 C19.5000065,15.4142136 19.6678997,15.7892136 19.9393463,16.0606602 C20.2107929,16.3321068 20.5857929,16.5 21.0000065,16.5 L22.0000065,16.5 C22.4142201,16.5 22.7892201,16.3321068 23.0606667,16.0606602 C23.3321133,15.7892136 23.5000065,15.4142136 23.5000065,15 C23.5000065,14.5857864 23.3321133,14.2107864 23.0606667,13.9393398 C22.7892201,13.6678932 22.4142201,13.5 22.0000065,13.5 Z M7.00000649,9.5 L6.00000649,9.5 C5.58579293,9.5 5.21079293,9.66789322 4.93934632,9.93933983 C4.66789971,10.2107864 4.50000649,10.5857864 4.50000649,11 C4.50000649,11.4142136 4.66789971,11.7892136 4.93934632,12.0606602 C5.21079293,12.3321068 5.58579293,12.5 6.00000649,12.5 L7.00000649,12.5 C7.41422005,12.5 7.78922005,12.3321068 8.06066666,12.0606602 C8.33211327,11.7892136 8.50000649,11.4142136 8.50000649,11 C8.50000649,10.5857864 8.33211327,10.2107864 8.06066666,9.93933983 C7.78922005,9.66789322 7.41422005,9.5 7.00000649,9.5 Z M12.0000065,9.5 L11.0000065,9.5 C10.5857929,9.5 10.2107929,9.66789322 9.93934632,9.93933983 C9.66789971,10.2107864 9.50000649,10.5857864 9.50000649,11 C9.50000649,11.4142136 9.66789971,11.7892136 9.93934632,12.0606602 C10.2107929,12.3321068 10.5857929,12.5 11.0000065,12.5 L12.0000065,12.5 C12.4142201,12.5 12.7892201,12.3321068 13.0606667,12.0606602 C13.3321133,11.7892136 13.5000065,11.4142136 13.5000065,11 C13.5000065,10.5857864 13.3321133,10.2107864 13.0606667,9.93933983 C12.7892201,9.66789322 12.4142201,9.5 12.0000065,9.5 Z M17.0000065,9.5 L16.0000065,9.5 C15.5857929,9.5 15.2107929,9.66789322 14.9393463,9.93933983 C14.6678997,10.2107864 14.5000065,10.5857864 14.5000065,11 C14.5000065,11.4142136 14.6678997,11.7892136 14.9393463,12.0606602 C15.2107929,12.3321068 15.5857929,12.5 16.0000065,12.5 L17.0000065,12.5 C17.4142201,12.5 17.7892201,12.3321068 18.0606667,12.0606602 C18.3321133,11.7892136 18.5000065,11.4142136 18.5000065,11 C18.5000065,10.5857864 18.3321133,10.2107864 18.0606667,9.93933983 C17.7892201,9.66789322 17.4142201,9.5 17.0000065,9.5 Z M22.0000065,9.5 L21.0000065,9.5 C20.5857929,9.5 20.2107929,9.66789322 19.9393463,9.93933983 C19.6678997,10.2107864 19.5000065,10.5857864 19.5000065,11 C19.5000065,11.4142136 19.6678997,11.7892136 19.9393463,12.0606602 C20.2107929,12.3321068 20.5857929,12.5 21.0000065,12.5 L22.0000065,12.5 C22.4142201,12.5 22.7892201,12.3321068 23.0606667,12.0606602 C23.3321133,11.7892136 23.5000065,11.4142136 23.5000065,11 C23.5000065,10.5857864 23.3321133,10.2107864 23.0606667,9.93933983 C22.7892201,9.66789322 22.4142201,9.5 22.0000065,9.5 Z" id="形状结合" stroke="#97A1AC"></path>
                    </g>
                </g>
            </g>
        </g>
    </g>
</svg>