<?xml version="1.0" encoding="UTF-8"?>
<svg width="28px" height="28px" viewBox="0 0 28 28" version="1.1" xmlns="http://www.w3.org/2000/svg" xmlns:xlink="http://www.w3.org/1999/xlink">
    <title>合作招商</title>
    <g id="页面-1" stroke="none" stroke-width="1" fill="none" fill-rule="evenodd">
        <g id="HC-1" transform="translate(-121, -3200)" fill="#D58E47" fill-rule="nonzero">
            <g id="编组-4" transform="translate(0, 3188)">
                <g id="DE&amp;I" transform="translate(95, 4)">
                    <g id="合作招商" transform="translate(26, 8)">
                        <rect id="矩形" opacity="0" x="0" y="0" width="28" height="28"></rect>
                        <path d="M7.59374048,3.34895703 C9.26198968,3.27694627 10.8822317,3.90103949 12.0584074,5.07721519 L12.1064146,5.12522236 C12.4184612,5.43726897 12.4184612,5.92934248 12.1064146,6.24138909 L9.10596638,9.24183729 L9.02195383,9.34985343 C8.76991618,9.69790542 8.85392873,10.1899789 9.21398251,10.4420166 L9.98209725,10.9820973 C11.8303733,12.2782909 14.5187749,12.9383895 16.5830833,10.8740811 L16.6670958,10.7900686 C16.9791425,10.478022 17.471216,10.478022 17.7832626,10.7900686 L23.2200747,16.2268807 C23.2680819,16.2748879 23.3040873,16.322895 23.3640962,16.4069076 C23.7121482,16.8989811 23.5801285,17.5710815 23.088055,17.9191335 C22.6439887,18.2311801 22.043899,18.1351658 21.6598417,17.7511084 L21.0237466,17.1150134 C20.8197162,16.9109829 20.483666,16.9109829 20.2796355,17.1150134 C20.075605,17.3190439 20.075605,17.6550941 20.2796355,17.8591245 L20.9637377,18.5432267 L21.0837556,18.69925 C21.4318076,19.1913235 21.2997879,19.8754257 20.8077144,20.2114759 C20.3756498,20.5235225 19.7635584,20.4275082 19.379501,20.0434508 L18.743406,19.4073558 C18.5393755,19.2033253 18.2033253,19.2033253 17.9992948,19.4073558 C17.7952644,19.6113863 17.7952644,19.9474365 17.9992948,20.151467 L18.683397,20.8355691 L18.803415,20.9915925 C19.151467,21.483666 19.0194472,22.1677681 18.5273737,22.5038183 C18.0833074,22.815865 17.4832178,22.7198506 17.0991604,22.3357932 L16.4630654,21.6996982 C16.2590349,21.4956677 15.9229847,21.4956677 15.7189542,21.6996982 C15.5149237,21.9037287 15.5149237,22.2397789 15.7189542,22.4438094 L16.4030564,23.1279116 C16.4390618,23.1639169 16.487069,23.2239259 16.5230743,23.2719331 C16.8711263,23.7640066 16.7391066,24.4481088 16.2470331,24.784159 C15.8029668,25.0962056 15.2028771,25.0001912 14.8188198,24.6161339 L14.5547803,24.3520944 L13.8346727,23.6319869 C13.8226709,23.6199851 13.8106692,23.6199851 13.7986674,23.6319869 L12.7665132,24.664141 C12.5504809,24.8801733 12.2504361,24.9881895 11.9503913,24.9761877 C11.6383447,24.9521841 11.3623034,24.8201644 11.1582729,24.5801285 C10.7982192,24.1600658 10.8462263,23.4879654 11.2662891,23.0679026 L11.9023841,22.4318076 C12.1064146,22.2277771 12.1064146,21.8917269 11.9023841,21.6876964 C11.6983536,21.483666 11.3623034,21.483666 11.1582729,21.6876964 L10.5221779,22.3237915 C10.1021152,22.7438542 9.44201657,22.7918614 9.00995203,22.4318076 C8.78191797,22.2277771 8.63789646,21.9517359 8.62589466,21.6396893 C8.60189108,21.3396444 8.72190901,21.0395996 8.93794128,20.8235674 L9.62204347,20.1394652 C9.82607394,19.9354347 9.82607394,19.5993845 9.62204347,19.395354 C9.41801299,19.1913235 9.08196279,19.1913235 8.87793231,19.395354 L8.24183729,20.031449 C7.82177455,20.4515118 7.14967415,20.4995189 6.7296114,20.1394652 C6.50157734,19.9354347 6.35755582,19.6593934 6.34555403,19.3473468 C6.32155044,19.047302 6.44156837,18.7472572 6.65760064,18.5312249 L7.34170283,17.8471227 C7.54573331,17.6430923 7.54573331,17.3070421 7.34170283,17.1030116 C7.13767236,16.8989811 6.80162216,16.8989811 6.59759168,17.1030116 L5.96149666,17.7391066 C5.54143391,18.1591693 4.86933351,18.2071765 4.44927077,17.8471227 C4.2212367,17.6430923 4.07721519,17.367051 4.0652134,17.0550044 C4.04120981,16.7549596 4.16122774,16.4549148 4.37726001,16.2388825 L5.0613622,15.5547803 C5.26539268,15.3507498 5.26539268,15.0146996 5.0613622,14.8106692 L3.80117395,13.5504809 C1.60484587,11.3541528 1.3888136,7.81362395 3.30910045,5.48527614 C4.3892618,4.18908252 5.9014877,3.43296957 7.59374048,3.34895703 Z M15.8029668,4.80117395 C17.9992948,2.60484587 21.5398237,2.3888136 23.8561697,4.30910045 C25.1523634,5.3892618 25.9084763,6.9014877 25.9924889,8.59374048 C26.0765014,10.2619897 25.4524082,11.8942335 24.2882343,13.0584074 L23.8441679,13.5024737 C23.5321213,13.8145204 23.0400478,13.8145204 22.7280012,13.5024737 L17.7952644,8.5697369 C17.4832178,8.25769028 16.9911442,8.25769028 16.6790976,8.5697369 L15.4789184,9.76991618 C14.2787391,10.9700955 12.8625275,10.6940542 11.8783805,10.2619897 C11.3623034,10.0339556 11.2302837,9.37385701 11.6263429,8.97779785 Z" id="形状结合"></path>
                    </g>
                </g>
            </g>
        </g>
    </g>
</svg>