<?xml version="1.0" encoding="UTF-8"?>
<svg width="24px" height="24px" viewBox="0 0 24 24" version="1.1" xmlns="http://www.w3.org/2000/svg" xmlns:xlink="http://www.w3.org/1999/xlink">
    <title>circle-abnormal</title>
    <g id="页面-1" stroke="none" stroke-width="1" fill="none" fill-rule="evenodd">
        <g id="Attendance" transform="translate(-31, -1098)" fill="#775200" fill-rule="nonzero">
            <g id="编组-2备份-9" transform="translate(15, 1082)">
                <g id="circle-abnormal" transform="translate(16, 16)">
                    <rect id="矩形" opacity="0" x="0" y="0" width="24" height="24"></rect>
                    <path d="M12.0617109,1.10899219 C6.03548438,1.10899219 1.14965625,5.99435156 1.14965625,12.0210703 C1.14965625,18.0477891 6.03548438,22.933125 12.0616875,22.933125 C18.0884063,22.933125 22.9737656,18.0477891 22.9737656,12.0210938 C22.9737656,5.99439844 18.0884297,1.10899219 12.0617109,1.10899219 L12.0617109,1.10899219 Z M12.0617109,21.1771641 C7.01332031,21.1771641 2.90561719,17.0699766 2.90561719,12.0210703 C2.90561719,6.97216406 7.01332031,2.86497656 12.0617109,2.86497656 C17.1106172,2.86497656 21.2178047,6.97216406 21.2178047,12.0210703 C21.2178047,17.0699766 17.1106172,21.1771641 12.0617109,21.1771641 Z" id="形状"></path>
                    <path d="M12.0617109,15.0235313 C11.5765547,15.0235313 11.1837422,14.7207422 11.1837422,14.3474766 L11.1837422,6.04148438 C11.1837422,5.66821875 11.5765547,5.36594531 12.0617109,5.36594531 C12.5468672,5.36594531 12.9396797,5.66821875 12.9396797,6.04148438 L12.9396797,14.3475 C12.9396797,14.7207656 12.5468672,15.0235313 12.0617109,15.0235313 L12.0617109,15.0235313 Z M10.8074531,17.4221719 C10.8074531,18.1148793 11.3690035,18.6764297 12.0617109,18.6764297 C12.7544184,18.6764297 13.3159687,18.1148793 13.3159687,17.4221719 C13.3159687,16.7294644 12.7544184,16.1679141 12.0617109,16.1679141 C11.3690035,16.1679141 10.8074531,16.7294644 10.8074531,17.4221719 Z" id="形状"></path>
                </g>
            </g>
        </g>
    </g>
</svg>