<?xml version="1.0" encoding="UTF-8"?>
<svg width="24px" height="24px" viewBox="0 0 24 24" version="1.1" xmlns="http://www.w3.org/2000/svg" xmlns:xlink="http://www.w3.org/1999/xlink">
    <title>icon_电子签名</title>
    <g id="页面-1" stroke="none" stroke-width="1" fill="none" fill-rule="evenodd">
        <g id="HC-1" transform="translate(-31, -1840)" fill="#775200" fill-rule="nonzero">
            <g id="编组-2备份-9" transform="translate(15, 1824)">
                <g id="icon_电子签名" transform="translate(16, 16)">
                    <rect id="矩形" opacity="0" x="0" y="0" width="24" height="24"></rect>
                    <path d="M19.6363594,21.1755473 L4.13355469,21.1755473 C3.93569636,21.1757586 3.74588093,21.0972535 3.60597388,20.9573464 C3.46606684,20.8174394 3.38756168,20.6276239 3.38777301,20.4297656 L3.38777301,4.12558594 C3.38756168,3.92772761 3.46606684,3.73791218 3.60597388,3.59800513 C3.74588093,3.45809809 3.93569636,3.37959293 4.13355469,3.37980426 L10.9408359,3.37980426 C11.3527195,3.37980426 11.6866172,3.71370233 11.6866172,4.12558594 C11.6866172,4.53746955 11.3527195,4.87136719 10.9408359,4.87136719 L4.87933594,4.87136719 L4.87933594,19.6918828 L18.8985234,19.6918828 L18.8985234,17.5497188 C18.8985234,17.1378351 19.2324211,16.8039375 19.6443047,16.8039375 C20.0561883,16.8039375 20.3900859,17.1378351 20.3900859,17.5497188 L20.3900859,20.4297187 C20.384035,20.8421642 20.0488458,21.17382 19.6363594,21.1755473 L19.6363594,21.1755473 Z" id="路径"></path>
                    <path d="M8.33057812,17.4386719 C8.15644041,17.4376 7.98811854,17.375882 7.8545625,17.2641328 C7.70356857,17.1351557 7.60715428,16.9536774 7.58479687,16.7563594 L7.29914062,13.4717344 C7.28422726,13.2944745 7.33195868,13.1175986 7.43402344,12.9719062 L13.7017969,4.18910156 C13.9349051,3.85746017 14.3919027,3.77597755 14.7252656,4.00661719 L18.8191406,6.79141406 C18.9851075,6.90407862 19.0993177,7.07825339 19.1364844,7.275375 C19.1679712,7.47246796 19.1225366,7.67412504 19.0095703,7.83867187 L12.5593359,16.7563594 C12.4355869,16.9306822 12.2408744,17.0411175 12.02775,17.0578594 L8.40989062,17.4228047 C8.38435266,17.4319057 8.35762858,17.4372505 8.33055469,17.4386719 L8.33057812,17.4386719 Z M8.80659375,13.6145391 L9.00496875,15.8756953 L11.5438125,15.6218203 L17.3513906,7.59271875 L14.4952031,5.64892969 L8.80659375,13.6145391 Z" id="形状"></path>
                    <path d="M21.0406641,16.1216736 C20.9154607,16.12106 20.7925135,16.0882752 20.6836406,16.0264453 C19.480417,15.4385749 18.6061123,14.3398613 18.3034688,13.0353516 C18.0756524,11.5663309 18.469447,10.0687634 19.3904063,8.90182031 C20.0086397,8.20231853 20.3050908,7.27555494 20.2076016,6.34710938 C20.1775183,5.98765022 20.0166109,5.65171682 19.755375,5.40297656 C18.4780313,4.51439063 17.3038125,5.75205469 17.2561875,5.80760156 C16.975752,6.10993862 16.5033214,6.12769333 16.2009844,5.8472578 C15.8986473,5.56682228 15.8808926,5.09439176 16.1613281,4.79205469 C17.2782466,3.50061737 19.1802851,3.23909172 20.6043047,4.18115625 C21.2093209,4.65774461 21.5956796,5.35892064 21.675375,6.12496875 C21.8364902,7.4596213 21.4307158,8.80069193 20.5567031,9.82214063 C19.9148867,10.6484773 19.626738,11.6955045 19.755375,12.733875 C19.9743538,13.6095421 20.578236,14.3388682 21.3976875,14.7173437 C21.7560384,14.915298 21.8872044,15.3655247 21.6912422,15.7249687 C21.5674923,15.9701813 21.3153238,16.123937 21.0406641,16.1216736 L21.0406641,16.1216736 Z" id="路径"></path>
                </g>
            </g>
        </g>
    </g>
</svg>