<?xml version="1.0" encoding="UTF-8"?>
<svg width="32px" height="32px" viewBox="0 0 32 32" version="1.1" xmlns="http://www.w3.org/2000/svg" xmlns:xlink="http://www.w3.org/1999/xlink">
    <title>时钟</title>
    <g id="页面-1" stroke="none" stroke-width="1" fill="none" fill-rule="evenodd">
        <g id="Training" transform="translate(-337, -314)" fill="#93BD4A" fill-rule="nonzero">
            <g id="编组-2备份-8" transform="translate(291, 298)">
                <g id="时钟" transform="translate(46, 16)">
                    <rect id="矩形" opacity="0" x="0" y="0" width="32" height="32"></rect>
                    <path d="M16,4 C17.953987,4 19.7953987,4.46638374 21.4250614,5.29461693 C21.7306232,5.42863525 21.9423721,5.73151664 21.9423721,6.08264463 C21.9423721,6.55706947 21.5563994,6.94304222 21.0792942,6.94304222 C20.9265133,6.94304222 20.7817735,6.90283672 20.6584767,6.8331472 L20.6531159,6.84386866 C19.2566451,6.13357159 17.6752289,5.73151664 16,5.73151664 C10.3283449,5.73151664 5.72883627,10.3283449 5.72883627,16 C5.72883627,21.6716551 10.3310252,26.2711637 16.0026804,26.2711637 C21.6743355,26.2711637 26.2738441,21.6716551 26.2738441,16 C26.2738441,14.3140496 25.8664284,12.721912 25.1454099,11.3174 C25.0703596,11.1860621 25.0247934,11.0332812 25.0247934,10.8724592 C25.0247934,10.3980344 25.4107661,10.0120616 25.8878713,10.0120616 C26.2255975,10.0120616 26.5177574,10.2077284 26.6624972,10.4891669 C27.5175341,12.1402725 28,14.0138486 28,16 C28,22.6285459 22.6285459,28 16,28 C9.3714541,28 4,22.6258655 4,16 C4,9.37413447 9.3714541,4 16,4 Z M16.0080411,9.18650882 C16.4797856,9.18650882 16.863078,9.57248157 16.863078,10.0415457 L16.863078,15.7024793 L20.2885861,19.1306679 C20.6209515,19.4657136 20.6209515,20.009828 20.2885861,20.3421934 C19.9562207,20.6745589 19.409426,20.6745589 19.0770605,20.3421934 L15.4022783,16.6647308 C15.2360956,16.4985481 15.1530042,16.2760777 15.1530042,16.0562877 L15.1530042,10.0415457 C15.1530042,9.56980121 15.538977,9.18650882 16.0080411,9.18650882 Z M23.8239893,7.3263346 C24.3006541,7.3263346 24.6870672,7.71154772 24.6870672,8.18673219 C24.6870672,8.66191665 24.3006541,9.04712977 23.8239893,9.04712977 C23.3473245,9.04712977 22.9609113,8.66191665 22.9609113,8.18673219 C22.9609113,7.71154772 23.3473245,7.3263346 23.8239893,7.3263346 Z" id="路径-4"></path>
                </g>
            </g>
        </g>
    </g>
</svg>