<?xml version="1.0" encoding="UTF-8"?>
<svg width="24px" height="24px" viewBox="0 0 24 24" version="1.1" xmlns="http://www.w3.org/2000/svg" xmlns:xlink="http://www.w3.org/1999/xlink">
    <title>婴儿车</title>
    <g id="页面-1" stroke="none" stroke-width="1" fill="none" fill-rule="evenodd">
        <g id="DE&amp;I-2" transform="translate(-31, -841)" fill="#775200" fill-rule="nonzero">
            <g id="编组-2备份-3" transform="translate(15, 826)">
                <g id="婴儿车" transform="translate(16, 15)">
                    <rect id="矩形" opacity="0" x="0" y="0" width="24" height="24"></rect>
                    <path d="M16.941375,18.9526875 C15.54975,18.9526875 14.4170625,20.084625 14.4170625,21.47625 C14.4170625,22.8680625 15.54975,24 16.941375,24 C18.3331875,24 19.465125,22.8680625 19.465125,21.47625 C19.4649375,20.084625 18.333,18.9526875 16.941375,18.9526875 L16.941375,18.9526875 Z M16.941375,22.5628125 C16.341406,22.5622961 15.8550769,22.0762186 15.85425,21.47625 C15.85425,20.877 16.342125,20.389875 16.941375,20.389875 C17.540625,20.389875 18.02775,20.877 18.02775,21.47625 C18.0272332,22.0760545 17.5411794,22.5621922 16.941375,22.5628125 Z M4.3966875,18.9526875 C3.0043125,18.9526875 1.871625,20.084625 1.871625,21.47625 C1.871625,22.8680625 3.0043125,24 4.3966875,24 C5.7875625,24 6.9196875,22.8680625 6.9196875,21.47625 C6.9196875,20.084625 5.78775,18.9526875 4.3966875,18.9526875 L4.3966875,18.9526875 Z M4.3966875,22.5628125 C3.7970625,22.5628125 3.309,22.0756875 3.309,21.47625 C3.309,20.877 3.7970625,20.389875 4.3966875,20.389875 C4.99628473,20.3905988 5.48208678,20.8766525 5.4825,21.47625 C5.48208696,22.075878 4.99631505,22.5619854 4.3966875,22.5628125 L4.3966875,22.5628125 Z M22.8819375,2.2918125 L21.0770625,2.2918125 C20.7713752,2.29198207 20.4991726,2.48530607 20.3983125,2.773875 L18.2019375,9.072375 L12.235875,9.072375 L8.138625,1.519125 C8.28120064,1.48376578 8.42468853,1.4521922 8.5689375,1.4244375 C8.95878724,1.35032574 9.21484506,0.974337846 9.141,0.5844375 C9.0673125,0.1948125 8.698125,-0.0598125 8.301,0.012375 C3.7224375,0.87975 0.399375,4.89675 0.399375,9.5630625 C0.399375,9.6020625 0.4048125,9.63975 0.411,9.6770625 C0.405,9.7145625 0.399375,9.7520625 0.399375,9.7910625 C0.399375,14.57475 4.9220625,19.0978125 9.7059375,19.0978125 C13.4150625,19.0978125 16.9659375,16.37775 18.374625,12.9260625 C18.3845625,12.9046875 18.39525,12.8836875 18.403125,12.861 L18.40725,12.8491875 C18.49299,12.6310353 18.5701739,12.4096164 18.638625,12.1854375 L21.5870625,3.729 L22.88175,3.729 C23.2790625,3.729 23.6004375,3.407625 23.6004375,3.0103125 C23.6004375,2.613 23.27925,2.2918125 22.8819375,2.2918125 Z M6.7591875,1.98975 L10.6014375,9.072375 L1.852875,9.072375 C2.0371875,5.9465625 3.9680625,3.2281875 6.7591875,1.98975 Z M9.7059375,17.660625 C5.9745,17.660625 2.3083125,14.219625 1.878375,10.5095625 L17.5329375,10.5095625 C17.4811974,10.943558 17.3881505,11.3716242 17.2550625,11.7879375 L17.0986875,12.236625 C15.9418125,15.2218125 12.8473125,17.660625 9.7059375,17.660625 Z" id="形状"></path>
                </g>
            </g>
        </g>
    </g>
</svg>