<?xml version="1.0" encoding="UTF-8"?>
<svg width="24px" height="24px" viewBox="0 0 24 24" version="1.1" xmlns="http://www.w3.org/2000/svg" xmlns:xlink="http://www.w3.org/1999/xlink">
    <title>在职</title>
    <g id="页面-1" stroke="none" stroke-width="1" fill="none" fill-rule="evenodd">
        <g id="Training" transform="translate(-31, -466)" fill="#775200" fill-rule="nonzero">
            <g id="编组-2备份" transform="translate(15, 450)">
                <g id="在职" transform="translate(16, 16)">
                    <rect id="矩形" opacity="0" x="0" y="0" width="24" height="24"></rect>
                    <path d="M20.5701797,4.32435938 L14.412,4.32435938 L14.412,3.13964063 C14.412,2.68775952 14.045678,2.3214375 13.5937969,2.3214375 L10.4040234,2.3214375 C9.95214233,2.3214375 9.58582031,2.68775952 9.58582031,3.13964063 L9.58582031,4.32435938 L3.42984375,4.32435938 C2.13876915,4.32495366 1.09212436,5.37110551 1.09092188,6.66217969 L1.09092188,19.0091016 C1.09092188,20.2985391 2.13928125,21.3468984 3.42984375,21.3468984 L13.6701563,21.3468984 C14.1196079,21.3434965 14.4821664,20.9781832 14.4821664,20.5287188 C14.4821664,20.0792543 14.1196079,19.713941 13.6701563,19.7105391 L3.42984375,19.7105391 C3.04227192,19.7105395 2.72791239,19.3966729 2.72730469,19.0091016 L2.72730469,6.66217969 C2.72730469,6.276 3.0425625,5.96071875 3.42984375,5.96071875 L9.586875,5.96071875 L9.586875,6 C9.586875,7.33089844 10.6701563,8.41310156 12.0010781,8.41310156 C13.3319766,8.41310156 14.4141563,7.32982031 14.4141563,5.99671875 L14.4141563,5.96071875 L20.5723594,5.96071875 C20.9585156,5.96071875 21.274875,6.276 21.274875,6.66220313 L21.274875,13.7847188 C21.274875,14.2359915 21.6407038,14.6018203 22.0919766,14.6018203 C22.5432493,14.6018203 22.9090781,14.2359915 22.9090781,13.7847188 L22.9090781,6.66217969 C22.9072695,5.37135709 21.8609796,4.32555993 20.5701563,4.32435938 L20.5701797,4.32435938 Z M12.7767422,6 C12.7761561,6.27769585 12.6274655,6.5339847 12.3866807,6.67232501 C12.145896,6.81066533 11.8495981,6.81003993 11.6093995,6.67068439 C11.3692009,6.53132885 11.2215935,6.2744146 11.2221779,5.99671875 L11.2221779,3.95671875 L12.7767188,3.95671875 L12.7767188,6 L12.7767422,6 Z M13.9276172,10.6745391 C13.9276172,10.2226763 14.2939575,9.85635938 14.7458203,9.85635938 L19.2338203,9.85635938 C19.6832719,9.85976136 20.0458305,10.2250746 20.0458305,10.6745391 C20.0458305,11.1240035 19.6832719,11.4893168 19.2338203,11.4927188 L14.7458203,11.4927188 C14.2939484,11.4927188 13.9276172,11.126411 13.9276172,10.6745391 L13.9276172,10.6745391 Z M13.9276172,13.5 C13.9276172,13.048128 14.2939484,12.6817969 14.7458203,12.6817969 L17.4763594,12.6817969 C17.9282405,12.6817969 18.2945625,13.0481189 18.2945625,13.5 C18.2945625,13.9518811 17.9282405,14.3182031 17.4763594,14.3182031 L14.7458203,14.3182031 C14.2939392,14.3182031 13.9276172,13.9518811 13.9276172,13.5 L13.9276172,13.5 Z M22.6003594,15.8552813 C22.7628603,15.9991902 22.8615179,16.2017732 22.874617,16.4184406 C22.8877162,16.635108 22.8141832,16.8481011 22.6702031,17.0105391 L18.7767188,21.4025391 C18.4930879,21.7260502 18.0068293,21.7733389 17.6661797,21.5105391 L14.7228984,19.2556172 C14.3638206,18.9808771 14.2954514,18.4670661 14.5701914,18.1079883 C14.8449315,17.7489105 15.3587425,17.6805412 15.7178203,17.9552813 L18.0578203,19.7487188 L21.4450781,15.9261797 C21.5888406,15.7635281 21.7913467,15.6646731 22.0080178,15.6513759 C22.2246889,15.6380788 22.4377633,15.7114296 22.6003359,15.8552813 L22.6003594,15.8552813 Z M9.98728125,17.9650781 L9.98728125,15.6697969 C9.98608376,15.3987452 9.76633488,15.1794779 9.49528125,15.178875 L7.17164063,15.178875 C7.04143814,15.1788688 6.91656663,15.2305888 6.82449957,15.3226558 C6.73243251,15.4147229 6.68071253,15.5395944 6.68071875,15.6697969 L6.68071875,17.9650781 C6.67731677,18.4145297 6.31200354,18.7770883 5.86253906,18.7770883 C5.41307459,18.7770883 5.04776136,18.4145297 5.04435938,17.9650781 L5.04435938,15.6697969 C5.04435938,14.4970781 5.99889844,13.5425156 7.17164063,13.5425156 L9.49528125,13.5425156 C10.6691016,13.5425156 11.6236406,14.4970781 11.6236406,15.6697969 L11.6236406,17.9650781 C11.6202386,18.4145297 11.2549254,18.7770883 10.8054609,18.7770883 C10.3559965,18.7770883 9.99068323,18.4145297 9.98728125,17.9650781 L9.98728125,17.9650781 Z M10.8305625,10.5937969 C10.8287548,9.21542988 9.71180453,8.09850057 8.3334375,8.09671875 C6.95671875,8.09671875 5.8374375,9.21710156 5.8374375,10.5938203 C5.8374375,11.9705391 6.95671875,13.0908984 8.3334375,13.0908984 C9.71178622,13.0890908 10.828708,11.972169 10.8305625,10.5938203 L10.8305625,10.5937969 Z M7.47381964,10.5937969 C7.47441268,10.1191013 7.85876645,9.73426546 8.33346094,9.73307541 C8.68231819,9.73220554 8.99729003,9.94173819 9.13129625,10.2638321 C9.26530247,10.585926 9.19190617,10.9570381 8.9453807,11.2038727 C8.69885524,11.4507074 8.32783545,11.5245687 8.00557385,11.3909663 C7.68331224,11.2573639 7.47338498,10.942655 7.47381964,10.5937969 L7.47381964,10.5937969 Z" id="形状"></path>
                </g>
            </g>
        </g>
    </g>
</svg>