<?xml version="1.0" encoding="UTF-8"?>
<svg width="24px" height="24px" viewBox="0 0 24 24" version="1.1" xmlns="http://www.w3.org/2000/svg" xmlns:xlink="http://www.w3.org/1999/xlink">
    <title>员工</title>
    <g id="页面-1" stroke="none" stroke-width="1" fill="none" fill-rule="evenodd">
        <g id="HC-1" transform="translate(-31, -1216)" fill="#775200" fill-rule="nonzero">
            <g id="编组-2" transform="translate(15, 1200)">
                <g id="员工" transform="translate(28, 28) scale(-1, 1) translate(-28, -28)translate(16, 16)">
                    <rect id="矩形" opacity="0" x="0" y="0" width="24" height="24"></rect>
                    <path d="M13.0908984,13.3636406 C15.2656064,13.3634361 17.0603758,15.0647465 17.1763594,17.2363594 L17.1818203,17.4545625 L17.1818203,19.0908984 C17.181498,19.5208963 16.8483885,19.8772741 16.4193906,19.9065851 C15.9903928,19.9358961 15.6119066,19.6281377 15.5531016,19.2021797 L15.5454609,19.0908984 L15.5454609,17.4545391 C15.5456153,16.1640157 14.5463962,15.093778 13.2588984,15.0054609 L13.0908984,15 L6.54546094,15 C5.2549286,14.9998333 4.18467704,15.9990557 4.09635937,17.2865625 L4.09089844,17.4545391 L4.09089844,19.0908984 C4.0905761,19.5208963 3.75746659,19.8772741 3.32846876,19.9065851 C2.89947093,19.9358961 2.52098471,19.6281377 2.46217969,19.2021797 L2.45453906,19.0908984 L2.45453906,17.4545391 C2.45434767,15.2798316 4.15566817,13.4850727 6.32728125,13.3691016 L6.54546094,13.3636406 L13.0908984,13.3636406 Z M19.0221797,13.4956406 C20.7511778,13.941684 21.9911244,15.4576064 22.0854609,17.2407188 L22.0908984,17.4545391 L22.0908984,19.0908984 C22.0905761,19.5208963 21.7574666,19.8772741 21.3284688,19.9065851 C20.8994709,19.9358961 20.5209847,19.6281377 20.4621797,19.2021797 L20.4545391,19.0908984 L20.4545391,17.4545391 C20.4533381,16.3364646 19.6966873,15.3604851 18.6141797,15.0807188 C18.3310328,15.0078366 18.1082764,14.7894336 18.0298207,14.50778 C17.9513651,14.2261265 18.0291294,13.9240123 18.2338207,13.715241 C18.438512,13.5064696 18.7390328,13.4227584 19.0221797,13.4956406 L19.0221797,13.4956406 Z M9.81820312,3.54546094 C12.0775439,3.54546094 13.9091016,5.37701855 13.9091016,7.63635938 C13.9091016,9.8957002 12.0775439,11.7272578 9.81820312,11.7272578 C7.5588623,11.7272578 5.72730469,9.8957002 5.72730469,7.63635938 C5.72730469,5.37701855 7.5588623,3.54546094 9.81820312,3.54546094 L9.81820312,3.54546094 Z M15.7483828,3.67635938 C17.5599775,4.13874857 18.8275607,5.77050613 18.8275607,7.64017969 C18.8275607,9.50985324 17.5599775,11.1416108 15.7483828,11.604 C15.4650391,11.6764928 15.1645442,11.5923169 14.9600918,11.3831804 C14.7556393,11.174044 14.6782904,10.8717198 14.7571816,10.5900906 C14.8360728,10.3084613 15.0592188,10.0903131 15.3425625,10.0178203 C16.428273,9.7394659 17.1875221,8.76100458 17.1875221,7.64017969 C17.1875221,6.51935479 16.428273,5.54089348 15.3425625,5.26253906 C15.0552915,5.1937868 14.8273801,4.97553418 14.74626,4.69150773 C14.6651399,4.40748129 14.7434067,4.10178185 14.9510356,3.89168248 C15.1586644,3.68158311 15.4634168,3.59970597 15.7483828,3.67746094 L15.7483828,3.67635938 Z M9.81822656,5.18182031 C8.46262207,5.18182031 7.3636875,6.28075488 7.3636875,7.63635938 C7.3636875,8.99196387 8.46262207,10.0908984 9.81822656,10.0908984 C11.1738311,10.0908984 12.2727656,8.99196387 12.2727656,7.63635938 C12.2727656,6.28075488 11.1738311,5.18182031 9.81822656,5.18182031 L9.81822656,5.18182031 Z" id="形状"></path>
                </g>
            </g>
        </g>
    </g>
</svg>