<?xml version="1.0" encoding="UTF-8"?>
<svg width="24px" height="24px" viewBox="0 0 24 24" version="1.1" xmlns="http://www.w3.org/2000/svg" xmlns:xlink="http://www.w3.org/1999/xlink">
    <title>外地户口离职销户提取</title>
    <g id="页面-1" stroke="none" stroke-width="1" fill="none" fill-rule="evenodd">
        <g id="HC-1" transform="translate(-31, -2232)" fill="#775200" fill-rule="nonzero">
            <g id="编组-2备份-3" transform="translate(15, 2216)">
                <g id="外地户口离职销户提取" transform="translate(16, 16)">
                    <rect id="矩形" opacity="0" x="0" y="0" width="24" height="24"></rect>
                    <path d="M13.40625,19.2890625 C13.21875,19.2890625 13.03125,19.2164062 12.8859375,19.0734375 L10.134375,16.321875 C9.8484375,16.0359375 9.8484375,15.5695312 10.134375,15.2835937 C10.4203125,14.9976562 10.8867188,14.9976562 11.1726562,15.2835937 L13.9242188,18.0351562 C14.2101563,18.3210937 14.2101563,18.7875 13.9242188,19.0734375 C13.78125,19.21875 13.59375,19.2890625 13.40625,19.2890625 Z" id="路径"></path>
                    <path d="M17.0976563,21.7640625 L6.9609375,21.7640625 C4.734375,21.7640625 2.9203125,19.9523438 2.9203125,17.7234375 L2.9203125,16.4015625 C2.9203125,14.175 4.73203125,12.3609375 6.9609375,12.3609375 L17.0976563,12.3609375 C19.3242188,12.3609375 21.1382813,14.1726563 21.1382813,16.4015625 L21.1382813,17.7234375 C21.1382813,19.9523438 19.3265625,21.7640625 17.0976563,21.7640625 Z M6.9609375,13.8328125 C5.54296875,13.8328125 4.38984375,14.9859375 4.38984375,16.4039062 L4.38984375,17.7257812 C4.38984375,19.14375 5.54296875,20.296875 6.9609375,20.296875 L17.0976563,20.296875 C18.515625,20.296875 19.66875,19.14375 19.66875,17.7257812 L19.66875,16.4039062 C19.66875,14.9859375 18.515625,13.8328125 17.0976563,13.8328125 L6.9609375,13.8328125 Z M12.065625,10.8210938 C9.7171875,10.8210938 7.8046875,8.9109375 7.8046875,6.56015625 C7.8046875,4.21171875 9.71484375,2.29921875 12.065625,2.29921875 C14.4164063,2.29921875 16.3265625,4.209375 16.3265625,6.56015625 C16.3242188,8.90859375 14.4140625,10.8210938 12.065625,10.8210938 Z M12.065625,3.76875 C10.5257813,3.76875 9.27421875,5.0203125 9.27421875,6.56015625 C9.27421875,8.1 10.5257813,9.3515625 12.065625,9.3515625 C13.6054688,9.3515625 14.8570313,8.1 14.8570313,6.56015625 C14.8570313,5.0203125 13.603125,3.76875 12.065625,3.76875 Z" id="形状"></path>
                    <path d="M10.6546875,19.2890625 C10.4671875,19.2890625 10.2796875,19.2164062 10.134375,19.0734375 C9.8484375,18.7875 9.8484375,18.3210937 10.134375,18.0351562 L12.8859375,15.2835937 C13.171875,14.9976562 13.6382813,14.9976562 13.9242188,15.2835937 C14.2101563,15.5695313 14.2101563,16.0359375 13.9242188,16.321875 L11.1726562,19.0734375 C11.0296875,19.21875 10.8421875,19.2890625 10.6546875,19.2890625 L10.6546875,19.2890625 Z" id="路径"></path>
                </g>
            </g>
        </g>
    </g>
</svg>