<?xml version="1.0" encoding="UTF-8"?>
<svg width="24px" height="24px" viewBox="0 0 24 24" version="1.1" xmlns="http://www.w3.org/2000/svg" xmlns:xlink="http://www.w3.org/1999/xlink">
    <title>温度计</title>
    <g id="页面-1" stroke="none" stroke-width="1" fill="none" fill-rule="evenodd">
        <g id="Attendance" transform="translate(-31, -706)" fill="#775200" fill-rule="nonzero">
            <g id="编组-2备份" transform="translate(15, 690)">
                <g id="温度计" transform="translate(16, 16)">
                    <rect id="矩形" opacity="0" x="0" y="0" width="24" height="24"></rect>
                    <path d="M5.78197913,15.5050589 L5.78197913,17.1149801 L3,19.8969335 L4.10309222,21.0000257 L6.88509706,18.2180209 L7.34191167,18.2179437 L8.4949925,18.2180209 L10.7011512,18.2180209 L12.2611609,16.6580112 L19.9828321,8.93633995 C21.339056,7.58011613 21.339056,5.3733917 19.9828321,4.01716787 C18.6266083,2.66094404 16.4198839,2.66094404 15.06366,4.01716787 L7.3419631,11.7388905 L5.78197913,13.2988745 L5.78197913,15.5050589 Z M16.1667523,5.12026009 C16.9147042,4.37230812 18.1318137,4.37230812 18.8797656,5.12026009 C19.6277176,5.86821205 19.6277176,7.08532149 18.8797656,7.83327345 L17.04199,9.67104905 L15.4939118,8.1229708 L14.3908196,9.22606302 L15.9388978,10.7741413 L14.8358056,11.8772335 L13.2877273,10.3291552 L12.1846351,11.4322475 L13.7327134,12.9803257 L12.6296212,14.0834179 L11.0815429,12.5353397 L9.9784507,13.6384319 L11.5265289,15.1865101 L10.0549765,16.6580883 L7.34193739,16.6580883 L7.34193739,13.9450492 L16.1667523,5.12026009 Z" id="形状"></path>
                </g>
            </g>
        </g>
    </g>
</svg>