<?xml version="1.0" encoding="UTF-8"?>
<svg width="16px" height="16px" viewBox="0 0 16 16" version="1.1" xmlns="http://www.w3.org/2000/svg" xmlns:xlink="http://www.w3.org/1999/xlink">
    <title>展开</title>
    <g id="页面-1" stroke="none" stroke-width="1" fill="none" fill-rule="evenodd">
        <g id="HC-1" transform="translate(-172, -1155)" fill="#775200" fill-rule="nonzero">
            <g id="编组-2备份" transform="translate(15, 298)">
                <g id="编组" transform="translate(157, 856)">
                    <g id="展开" transform="translate(8, 9) rotate(-90) translate(-8, -9)translate(0, 1)">
                        <rect id="矩形" opacity="0" x="0" y="0" width="16" height="16"></rect>
                        <path d="M12.0896872,3.16333257 C12.2964706,2.95113565 12.6360085,2.94639792 12.848632,3.15274265 C13.0547856,3.36555925 13.049732,3.70510037 12.8373361,3.91168741 L8.59359938,8.15471811 L12.8366301,12.3998668 C13.0489443,12.6062101 13.0539993,12.9455293 12.847926,13.1581056 C12.7458057,13.257289 12.6084558,13.3118243 12.4661132,13.3097652 C12.3237706,13.3075871 12.1881045,13.2489884 12.0889812,13.1468096 L7.48518703,8.54372142 C7.4311276,8.48911264 7.38925947,8.42366361 7.36234388,8.35169075 C7.35245995,8.32839291 7.35245995,8.30156509 7.34610599,8.27756126 C7.33692805,8.23661354 7.32422014,8.19707782 7.32422014,8.15471811 C7.32422014,8.1123584 7.33763405,8.07211668 7.34610599,8.03187496 C7.35245995,8.00716513 7.35245995,7.98104331 7.36234388,7.95774547 C7.38944933,7.88586767 7.43129349,7.8204561 7.48518703,7.76571479 Z M8.14182998,3.0000433 C8.28434458,2.99823449 8.42174105,3.05315837 8.52370586,3.15274265 C8.72985951,3.36555925 8.72480587,3.70510037 8.51240994,3.91168741 L4.26867324,8.15471811 L8.51311593,12.3991608 C8.72531285,12.6059442 8.73005059,12.945482 8.52370586,13.1581056 C8.42146248,13.2574146 8.28390681,13.3119611 8.14139044,13.3097764 C7.99887408,13.3074578 7.86311022,13.248593 7.76405511,13.1461036 L3.16096689,8.54372142 C3.10690746,8.48911264 3.06503933,8.42366361 3.03812374,8.35169075 C3.0289458,8.32768691 3.0289458,8.30156509 3.02259184,8.27685527 C3.01341391,8.23661354 3,8.19707782 3,8.15471811 C3,8.1123584 3.01341391,8.07211668 3.02259184,8.03187496 C3.02823981,8.00645913 3.02823981,7.98033731 3.03812374,7.95703947 C3.06522919,7.88516167 3.10707335,7.81975011 3.16096689,7.7650088 L7.76405511,3.16262658 C7.86339442,3.0604231 7.99931538,3.00194305 8.14182998,3.0000433 Z" id="形状结合"></path>
                    </g>
                </g>
            </g>
        </g>
    </g>
</svg>