<?xml version="1.0" encoding="UTF-8"?>
<svg width="40px" height="40px" viewBox="0 0 40 40" version="1.1" xmlns="http://www.w3.org/2000/svg" xmlns:xlink="http://www.w3.org/1999/xlink">
    <title>随机用户</title>
    <g id="页面-1" stroke="none" stroke-width="1" fill="none" fill-rule="evenodd">
        <g id="DE&amp;I" transform="translate(-323, -420)" fill-rule="nonzero">
            <g id="编组-2备份-5" transform="translate(15, 346)">
                <g id="编组-3备份" transform="translate(272, 56)">
                    <g id="随机用户" transform="translate(36, 18)">
                        <rect id="矩形" fill="#000000" opacity="0" x="0" y="0" width="40" height="40"></rect>
                        <path d="M35.7010631,31.2487597 C35.8344737,31.6483587 35.9345251,32.1611782 36.0012174,32.7872183 C36.0679096,33.4132583 36.1012557,34.0459523 36.1012557,34.6853002 C36.1012557,35.324648 36.0545685,35.9240595 35.9611942,36.4835345 C35.8678198,37.0430096 35.7277452,37.4692502 35.5409703,37.7622564 C35.4075597,37.948722 35.0407001,38.1352006 34.4403916,38.3216923 C33.840083,38.508184 33.0996998,38.6879957 32.219242,38.8611274 C31.3387843,39.0342591 30.3516111,39.1874421 29.2577224,39.3206766 C28.1638338,39.453911 27.0699321,39.5737985 25.9760173,39.6803391 C24.8821026,39.7868797 23.82156,39.8667917 22.7943898,39.920075 C21.7672195,39.9733583 20.8667436,40 20.092962,40 C19.3191805,40 18.4253947,39.9667044 17.4116047,39.9001133 C16.3978147,39.8335222 15.3506002,39.7535972 14.2699612,39.6603383 C13.1893221,39.5670794 12.1221025,39.4605258 11.0683024,39.3406774 C10.0145023,39.220829 9.04733416,39.0942746 8.16679797,38.9610141 C7.28626179,38.8277535 6.54587861,38.6945582 5.94564845,38.5614282 C5.34541829,38.4282981 4.96521764,38.2950898 4.8050465,38.1618031 C4.53825141,37.9486959 4.33148456,37.2960272 4.18474595,36.203797 C4.03800734,35.1115669 4.08469452,33.6996367 4.32480749,31.9680065 C4.48490023,30.982343 4.88510594,30.2364285 5.52542462,29.7302629 C6.1657433,29.2240973 6.91280353,28.8178444 7.76660533,28.5115044 C8.62040712,28.2051643 9.50752891,27.9320938 10.4279707,27.6922926 C11.3484124,27.4524915 12.168842,27.1061759 12.8892593,26.6533458 C13.4495577,26.3070302 13.8764456,25.9740355 14.1699228,25.6543615 C14.4634,25.3346876 14.6768439,25.0150006 14.8102545,24.6953006 C14.9436652,24.3756006 15.0103574,24.0426058 15.0103313,23.6963163 C15.0103051,23.3500268 14.9969771,22.9637356 14.9703473,22.5374428 C14.916983,21.9247366 14.703526,21.4385588 14.3299763,21.0789093 C13.9564266,20.7192598 13.5562209,20.3529564 13.1293592,19.9799992 C12.9159284,19.7935336 12.7225026,19.5337969 12.5490818,19.2007891 C12.3756611,18.8677813 12.2222454,18.5281196 12.0888348,18.1818039 C11.9554242,17.782205 11.8220136,17.3559644 11.688603,16.9030821 C11.44849,16.8764665 11.208377,16.7965546 10.9682641,16.6633462 C10.7548071,16.5301379 10.5413632,16.3369923 10.3279323,16.0839095 C10.1145015,15.8308267 9.94108073,15.4778442 9.80767012,15.0249619 C9.67425951,14.5720796 9.64090032,14.1591598 9.70759256,13.7862026 C9.7742848,13.4132453 9.88767729,13.0935714 10.04777,12.8271808 C10.2078628,12.5341485 10.4346477,12.254424 10.728125,11.9880073 C10.728125,10.9756761 10.7814892,9.96335792 10.8882177,8.95105278 C10.9949462,8.09857157 11.181708,7.18615312 11.4485031,6.21379744 C11.7152982,5.24144176 12.1288449,4.36897276 12.6891434,3.59639046 C13.1960776,2.85047592 13.756376,2.24442361 14.3700387,1.77823355 C14.9837014,1.31204348 15.6173561,0.945740105 16.2710028,0.679323416 C16.9246494,0.412906727 17.5716452,0.233081986 18.21199,0.139849191 C18.8523348,0.0466163972 19.4793255,0 20.092962,0 C20.8667175,0 21.6071007,0.0865789005 22.3141116,0.259736702 C23.0211225,0.432894503 23.6747953,0.665989535 24.27513,0.959021799 C24.8754647,1.25205406 25.415745,1.58506188 25.895971,1.95804524 C26.3761969,2.33102861 26.7764026,2.70398588 27.0965881,3.07691706 C27.763615,3.92939827 28.2638852,4.87512533 28.5973987,5.91409823 C28.9309122,6.95307113 29.1643611,7.92542681 29.2977456,8.83116527 C29.4311562,9.89675375 29.4845205,10.9623553 29.4578383,12.0279698 C29.6979513,12.1611782 29.8980542,12.334336 30.0581469,12.5474432 C30.1915314,12.7339349 30.3115879,12.9736969 30.4183164,13.2667292 C30.5250449,13.5597614 30.551727,13.9193979 30.4983627,14.3456385 C30.4449985,14.931703 30.3115879,15.3845853 30.0981309,15.7042853 C29.8846739,16.0239853 29.657902,16.2770681 29.4178152,16.4635337 C29.1243379,16.676641 28.8175066,16.8231571 28.4973211,16.9030821 C28.3639105,17.3559644 28.2304999,17.782205 28.0970893,18.1818039 C27.9637048,18.5281196 27.8103022,18.8677813 27.6368815,19.2007891 C27.4634607,19.5337969 27.2700219,19.7935336 27.0565649,19.9799992 C26.576339,20.3796242 26.1761332,20.7192859 25.8559478,20.9989843 C25.5357623,21.2786827 25.3223184,21.7515527 25.215616,22.4175945 C25.1355958,22.8171934 25.1022497,23.2234462 25.1155777,23.636353 C25.1289057,24.0492597 25.2356211,24.4621925 25.4357239,24.8751514 C25.6358268,25.2881103 25.9426581,25.6810423 26.356218,26.0539474 C26.7697778,26.4268525 27.3500682,26.7598473 28.0970893,27.0529317 C28.7374341,27.3193484 29.4511351,27.5591104 30.2381924,27.7722176 C31.0252497,27.9853249 31.785651,28.2317538 32.5193963,28.5115044 C33.2531416,28.791255 33.9068144,29.1375706 34.4804148,29.5504512 C35.0540151,29.9633318 35.4608978,30.5294347 35.7010631,31.2487597 L35.7010631,31.2487597 Z M20.2130316,23.5359267 C20.6932837,23.5359267 21.1068435,23.3627689 21.4537111,23.0164533 C21.8005787,22.6701377 21.9739864,22.2438971 21.9739341,21.7377315 C21.9738818,21.2315658 21.8004611,20.8053252 21.4536719,20.4590096 C21.1068827,20.112694 20.6933359,19.9395362 20.2130316,19.9395362 C19.7060974,19.9395362 19.2792096,20.112694 18.9323681,20.4590096 C18.5855266,20.8053252 18.4121059,21.2315658 18.4121059,21.7377315 C18.4121059,22.2438971 18.5855266,22.6701377 18.9323681,23.0164533 C19.2792096,23.3627689 19.7060974,23.5359267 20.2130316,23.5359267 L20.2130316,23.5359267 Z M21.693811,16.3031441 C21.6671289,15.9834963 21.8538907,15.6438476 22.2540964,15.2841981 C22.6543021,14.9245487 23.1078721,14.5316036 23.6148063,14.105363 C24.1217405,13.6791224 24.5886515,13.1929446 25.0155393,12.6468295 C25.4424271,12.1007144 25.6825532,11.4813282 25.7359174,10.7886709 C25.7625734,10.0427564 25.682527,9.3367913 25.4957783,8.67077567 C25.3090296,8.00476005 24.9888572,7.42534941 24.5352611,6.93254377 C24.081665,6.43973813 23.5013746,6.05346003 22.7943898,5.77370945 C22.087405,5.49395888 21.2536344,5.35412274 20.293078,5.35412274 C19.119143,5.35412274 18.1319567,5.56724304 17.3315191,5.99348365 C16.5310816,6.41972426 15.8907629,6.92588988 15.4105631,7.5119805 C14.9303633,8.09807112 14.5968498,8.71744426 14.4100227,9.37009991 C14.2231956,10.0227556 14.1298996,10.5622167 14.1298996,10.9884834 C14.1565556,11.4946491 14.3166353,11.8609524 14.6101386,12.0873936 C14.903642,12.3138347 15.2304784,12.4337092 15.5906478,12.447017 C15.9508173,12.4603248 16.2776537,12.360425 16.571157,12.1473178 C16.8646604,11.9342105 17.011399,11.6411782 17.0113729,11.268221 C17.0113729,11.028446 17.0847422,10.7420676 17.2314808,10.4090859 C17.3782194,10.0761041 17.5783222,9.74976327 17.8317893,9.43006324 C18.0852564,9.11036321 18.3920878,8.84394652 18.7522834,8.63081317 C19.112479,8.41767982 19.5060207,8.31112619 19.9329085,8.31115229 C20.8133402,8.31115229 21.5137002,8.53093953 22.0339885,8.97051402 C22.5542768,9.41008851 22.8010668,9.96287052 22.7743586,10.6288601 C22.7743586,11.1350257 22.5675917,11.581241 22.154058,11.9675061 C21.7405243,12.3537711 21.2869544,12.7467162 20.7933482,13.1463412 C20.299742,13.5459662 19.839495,13.9722068 19.4126071,14.425063 C18.9857193,14.8779192 18.7589474,15.4107135 18.7322914,16.0234457 L18.7322914,17.1023942 C18.7589474,17.3954265 18.905686,17.6751509 19.1725072,17.9415676 C19.4393284,18.2079843 19.799511,18.3545004 20.2530548,18.381116 C20.7066247,18.3544744 21.0601433,18.2079582 21.3136104,17.9415676 C21.5670775,17.675177 21.693811,17.35549 21.693811,16.9825067 L21.693811,16.3031441 Z" id="形状" fill="#9586A2"></path>
                    </g>
                </g>
            </g>
        </g>
    </g>
</svg>